solid OpenSCAD_Model
  facet normal 0 0 1
    outer loop
      vertex -22.9787 0.989511 40.6546
      vertex -22.9787 -0.989511 40.6546
      vertex -22.8086 -2.96121 40.6546
    endloop
  endfacet
  facet normal 0 0 1
    outer loop
      vertex -21.9642 -6.82439 40.6546
      vertex -22.9787 0.989511 40.6546
      vertex -22.4696 -4.91098 40.6546
    endloop
  endfacet
  facet normal 0 0 1
    outer loop
      vertex -22.4696 -4.91098 40.6546
      vertex -22.9787 0.989511 40.6546
      vertex -22.8086 -2.96121 40.6546
    endloop
  endfacet
  facet normal 0 0 1
    outer loop
      vertex -21.2963 -8.68728 40.6546
      vertex -22.9787 0.989511 40.6546
      vertex -21.9642 -6.82439 40.6546
    endloop
  endfacet
  facet normal 0 0 1
    outer loop
      vertex -20.4706 -10.4859 40.6546
      vertex -22.9787 0.989511 40.6546
      vertex -21.2963 -8.68728 40.6546
    endloop
  endfacet
  facet normal 0 0 1
    outer loop
      vertex -19.4934 -12.2068 40.6546
      vertex -22.9787 0.989511 40.6546
      vertex -20.4706 -10.4859 40.6546
    endloop
  endfacet
  facet normal 0 0 1
    outer loop
      vertex -18.3719 -13.8374 40.6546
      vertex -22.9787 0.989511 40.6546
      vertex -19.4934 -12.2068 40.6546
    endloop
  endfacet
  facet normal 0 0 1
    outer loop
      vertex -17.1144 -15.3655 40.6546
      vertex -22.9787 0.989511 40.6546
      vertex -18.3719 -13.8374 40.6546
    endloop
  endfacet
  facet normal 0 0 1
    outer loop
      vertex -19.4957 -7.80491 40.6546
      vertex -22.9787 0.989511 40.6546
      vertex -17.1144 -15.3655 40.6546
    endloop
  endfacet
  facet normal 0 0 1
    outer loop
      vertex -19.4957 -7.80491 40.6546
      vertex -20.1494 -5.91638 40.6546
      vertex -22.9787 0.989511 40.6546
    endloop
  endfacet
  facet normal 0 0 1
    outer loop
      vertex 21 0 40.6546
      vertex 20.9049 -1.99618 40.6546
      vertex 22.9149 -1.97719 40.6546
    endloop
  endfacet
  facet normal 0 0 1
    outer loop
      vertex 10.5 18.1865 40.6546
      vertex 12.1812 17.1061 40.6546
      vertex 13.4389 18.6654 40.6546
    endloop
  endfacet
  facet normal 0 0 1
    outer loop
      vertex -8.72372 19.1023 40.6546
      vertex -6.86843 19.845 40.6546
      vertex -5.3933 22.3587 40.6546
    endloop
  endfacet
  facet normal 0 0 1
    outer loop
      vertex -20.1494 5.91638 40.6546
      vertex -19.4957 7.80491 40.6546
      vertex -22.9787 0.989511 40.6546
    endloop
  endfacet
  facet normal 0 0 1
    outer loop
      vertex -10.5 18.1865 40.6546
      vertex -8.72372 19.1023 40.6546
      vertex -7.2954 21.8123 40.6546
    endloop
  endfacet
  facet normal 0 0 1
    outer loop
      vertex -17.1144 15.3655 40.6546
      vertex -22.9787 0.989511 40.6546
      vertex -15.7301 16.7798 40.6546
    endloop
  endfacet
  facet normal 0 0 1
    outer loop
      vertex -18.3719 13.8374 40.6546
      vertex -22.9787 0.989511 40.6546
      vertex -17.1144 15.3655 40.6546
    endloop
  endfacet
  facet normal 0 0 1
    outer loop
      vertex -19.4934 12.2068 40.6546
      vertex -22.9787 0.989511 40.6546
      vertex -18.3719 13.8374 40.6546
    endloop
  endfacet
  facet normal 0 0 1
    outer loop
      vertex -20.4706 10.4859 40.6546
      vertex -22.9787 0.989511 40.6546
      vertex -19.4934 12.2068 40.6546
    endloop
  endfacet
  facet normal 0 0 1
    outer loop
      vertex -21.2963 8.68728 40.6546
      vertex -22.9787 0.989511 40.6546
      vertex -20.4706 10.4859 40.6546
    endloop
  endfacet
  facet normal 0 0 1
    outer loop
      vertex -21.9642 6.82439 40.6546
      vertex -22.9787 0.989511 40.6546
      vertex -21.2963 8.68728 40.6546
    endloop
  endfacet
  facet normal 0 0 1
    outer loop
      vertex -22.4696 4.91098 40.6546
      vertex -22.9787 0.989511 40.6546
      vertex -21.9642 6.82439 40.6546
    endloop
  endfacet
  facet normal 0 0 1
    outer loop
      vertex -22.8086 2.96121 40.6546
      vertex -22.9787 0.989511 40.6546
      vertex -22.4696 4.91098 40.6546
    endloop
  endfacet
  facet normal 0 0 1
    outer loop
      vertex -10.5 -18.1865 40.6546
      vertex -12.1812 -17.1061 40.6546
      vertex -9.14349 -21.1044 40.6546
    endloop
  endfacet
  facet normal 0 0 1
    outer loop
      vertex 10.5 -18.1865 40.6546
      vertex 8.72372 -19.1023 40.6546
      vertex 11.7845 -19.7516 40.6546
    endloop
  endfacet
  facet normal 0 0 1
    outer loop
      vertex 12.1812 17.1061 40.6546
      vertex 13.7521 15.8707 40.6546
      vertex 14.9937 17.441 40.6546
    endloop
  endfacet
  facet normal 0 0 1
    outer loop
      vertex -6.86843 19.845 40.6546
      vertex -4.95094 20.408 40.6546
      vertex -3.45127 22.7396 40.6546
    endloop
  endfacet
  facet normal 0 0 1
    outer loop
      vertex -12.1812 17.1061 40.6546
      vertex -10.5 18.1865 40.6546
      vertex -9.14349 21.1044 40.6546
    endloop
  endfacet
  facet normal 0 0 1
    outer loop
      vertex -15.7301 16.7798 40.6546
      vertex -22.9787 0.989511 40.6546
      vertex -19.4957 7.80491 40.6546
    endloop
  endfacet
  facet normal 0 0 1
    outer loop
      vertex -15.7301 16.7798 40.6546
      vertex -18.6655 9.62276 40.6546
      vertex -14.2294 18.0699 40.6546
    endloop
  endfacet
  facet normal 0 0 1
    outer loop
      vertex -15.7301 16.7798 40.6546
      vertex -19.4957 7.80491 40.6546
      vertex -18.6655 9.62276 40.6546
    endloop
  endfacet
  facet normal 0 0 1
    outer loop
      vertex -14.2294 18.0699 40.6546
      vertex -17.6663 11.3535 40.6546
      vertex -12.6234 19.2263 40.6546
    endloop
  endfacet
  facet normal 0 0 1
    outer loop
      vertex -18.6655 9.62276 40.6546
      vertex -17.6663 11.3535 40.6546
      vertex -14.2294 18.0699 40.6546
    endloop
  endfacet
  facet normal 0 0 1
    outer loop
      vertex -17.6663 11.3535 40.6546
      vertex -16.5071 12.9813 40.6546
      vertex -12.6234 19.2263 40.6546
    endloop
  endfacet
  facet normal 0 0 1
    outer loop
      vertex -16.5071 12.9813 40.6546
      vertex -15.1984 14.4917 40.6546
      vertex -12.6234 19.2263 40.6546
    endloop
  endfacet
  facet normal 0 0 1
    outer loop
      vertex -12.6234 19.2263 40.6546
      vertex -15.1984 14.4917 40.6546
      vertex -10.9239 20.2403 40.6546
    endloop
  endfacet
  facet normal 0 0 1
    outer loop
      vertex -15.1984 14.4917 40.6546
      vertex -13.7521 15.8707 40.6546
      vertex -10.9239 20.2403 40.6546
    endloop
  endfacet
  facet normal 0 0 1
    outer loop
      vertex -10.9239 20.2403 40.6546
      vertex -12.1812 17.1061 40.6546
      vertex -9.14349 21.1044 40.6546
    endloop
  endfacet
  facet normal 0 0 1
    outer loop
      vertex -9.14349 21.1044 40.6546
      vertex -10.5 18.1865 40.6546
      vertex -7.2954 21.8123 40.6546
    endloop
  endfacet
  facet normal 0 0 1
    outer loop
      vertex -13.7521 15.8707 40.6546
      vertex -12.1812 17.1061 40.6546
      vertex -10.9239 20.2403 40.6546
    endloop
  endfacet
  facet normal 0 0 1
    outer loop
      vertex -7.2954 21.8123 40.6546
      vertex -8.72372 19.1023 40.6546
      vertex -5.3933 22.3587 40.6546
    endloop
  endfacet
  facet normal 0 0 1
    outer loop
      vertex -5.3933 22.3587 40.6546
      vertex -6.86843 19.845 40.6546
      vertex -3.45127 22.7396 40.6546
    endloop
  endfacet
  facet normal 0 0 1
    outer loop
      vertex -3.45127 22.7396 40.6546
      vertex -4.95094 20.408 40.6546
      vertex -1.48369 22.9521 40.6546
    endloop
  endfacet
  facet normal 0 0 1
    outer loop
      vertex 8.72372 19.1023 40.6546
      vertex 10.5 18.1865 40.6546
      vertex 11.7845 19.7516 40.6546
    endloop
  endfacet
  facet normal 0 0 1
    outer loop
      vertex -1.48369 22.9521 40.6546
      vertex -2.98861 20.7862 40.6546
      vertex 0.49487 22.9947 40.6546
    endloop
  endfacet
  facet normal 0 0 1
    outer loop
      vertex -20.6205 3.97428 40.6546
      vertex -20.1494 5.91638 40.6546
      vertex -22.9787 0.989511 40.6546
    endloop
  endfacet
  facet normal 0 0 1
    outer loop
      vertex 0.49487 22.9947 40.6546
      vertex -0.99922 20.9762 40.6546
      vertex 2.46977 22.867 40.6546
    endloop
  endfacet
  facet normal 0 0 1
    outer loop
      vertex 2.46977 22.867 40.6546
      vertex 0.99922 20.9762 40.6546
      vertex 4.42639 22.57 40.6546
    endloop
  endfacet
  facet normal 0 0 1
    outer loop
      vertex 4.42639 22.57 40.6546
      vertex 2.98861 20.7862 40.6546
      vertex 6.35023 22.106 40.6546
    endloop
  endfacet
  facet normal 0 0 1
    outer loop
      vertex 6.35023 22.106 40.6546
      vertex 4.95094 20.408 40.6546
      vertex 8.22706 21.4783 40.6546
    endloop
  endfacet
  facet normal 0 0 1
    outer loop
      vertex 8.22706 21.4783 40.6546
      vertex 6.86843 19.845 40.6546
      vertex 10.043 20.6915 40.6546
    endloop
  endfacet
  facet normal 0 0 1
    outer loop
      vertex 10.043 20.6915 40.6546
      vertex 8.72372 19.1023 40.6546
      vertex 11.7845 19.7516 40.6546
    endloop
  endfacet
  facet normal 0 0 1
    outer loop
      vertex 11.7845 19.7516 40.6546
      vertex 10.5 18.1865 40.6546
      vertex 13.4389 18.6654 40.6546
    endloop
  endfacet
  facet normal 0 0 1
    outer loop
      vertex 13.4389 18.6654 40.6546
      vertex 12.1812 17.1061 40.6546
      vertex 14.9937 17.441 40.6546
    endloop
  endfacet
  facet normal 0 0 1
    outer loop
      vertex -4.95094 20.408 40.6546
      vertex -2.98861 20.7862 40.6546
      vertex -1.48369 22.9521 40.6546
    endloop
  endfacet
  facet normal 0 0 1
    outer loop
      vertex 14.9937 17.441 40.6546
      vertex 13.7521 15.8707 40.6546
      vertex 16.4375 16.0875 40.6546
    endloop
  endfacet
  facet normal 0 0 1
    outer loop
      vertex -2.98861 20.7862 40.6546
      vertex -0.99922 20.9762 40.6546
      vertex 0.49487 22.9947 40.6546
    endloop
  endfacet
  facet normal 0 0 1
    outer loop
      vertex 16.4375 16.0875 40.6546
      vertex 15.1984 14.4917 40.6546
      vertex 17.7596 14.6149 40.6546
    endloop
  endfacet
  facet normal 0 0 1
    outer loop
      vertex -0.99922 20.9762 40.6546
      vertex 0.99922 20.9762 40.6546
      vertex 2.46977 22.867 40.6546
    endloop
  endfacet
  facet normal 0 0 1
    outer loop
      vertex 17.7596 14.6149 40.6546
      vertex 16.5071 12.9813 40.6546
      vertex 18.9502 13.0341 40.6546
    endloop
  endfacet
  facet normal 0 0 1
    outer loop
      vertex 0.99922 20.9762 40.6546
      vertex 2.98861 20.7862 40.6546
      vertex 4.42639 22.57 40.6546
    endloop
  endfacet
  facet normal 0 0 1
    outer loop
      vertex 18.9502 13.0341 40.6546
      vertex 17.6663 11.3535 40.6546
      vertex 20.0006 11.3568 40.6546
    endloop
  endfacet
  facet normal 0 0 1
    outer loop
      vertex 2.98861 20.7862 40.6546
      vertex 4.95094 20.408 40.6546
      vertex 6.35023 22.106 40.6546
    endloop
  endfacet
  facet normal 0 0 1
    outer loop
      vertex 20.0006 11.3568 40.6546
      vertex 18.6655 9.62276 40.6546
      vertex 20.9028 9.59545 40.6546
    endloop
  endfacet
  facet normal 0 0 1
    outer loop
      vertex 4.95094 20.408 40.6546
      vertex 6.86843 19.845 40.6546
      vertex 8.22706 21.4783 40.6546
    endloop
  endfacet
  facet normal 0 0 1
    outer loop
      vertex 20.9028 9.59545 40.6546
      vertex 19.4957 7.80491 40.6546
      vertex 21.6503 7.76303 40.6546
    endloop
  endfacet
  facet normal 0 0 1
    outer loop
      vertex 6.86843 19.845 40.6546
      vertex 8.72372 19.1023 40.6546
      vertex 10.043 20.6915 40.6546
    endloop
  endfacet
  facet normal 0 0 1
    outer loop
      vertex 21.6503 7.76303 40.6546
      vertex 20.1494 5.91638 40.6546
      vertex 22.2375 5.87313 40.6546
    endloop
  endfacet
  facet normal 0 0 1
    outer loop
      vertex 22.2375 5.87313 40.6546
      vertex 20.6205 3.97428 40.6546
      vertex 22.6601 3.93974 40.6546
    endloop
  endfacet
  facet normal 0 0 1
    outer loop
      vertex 20.9049 1.99618 40.6546
      vertex 21 0 40.6546
      vertex 23 0 40.6546
    endloop
  endfacet
  facet normal 0 0 1
    outer loop
      vertex 22.6601 3.93974 40.6546
      vertex 20.9049 1.99618 40.6546
      vertex 22.9149 1.97719 40.6546
    endloop
  endfacet
  facet normal 0 0 1
    outer loop
      vertex -20.9049 1.99618 40.6546
      vertex -20.6205 3.97428 40.6546
      vertex -22.9787 0.989511 40.6546
    endloop
  endfacet
  facet normal 0 0 1
    outer loop
      vertex 23 0 40.6546
      vertex 21 0 40.6546
      vertex 22.9149 -1.97719 40.6546
    endloop
  endfacet
  facet normal 0 0 1
    outer loop
      vertex 22.9149 -1.97719 40.6546
      vertex 20.9049 -1.99618 40.6546
      vertex 22.6601 -3.93974 40.6546
    endloop
  endfacet
  facet normal 0 0 1
    outer loop
      vertex 22.6601 -3.93974 40.6546
      vertex 20.6205 -3.97428 40.6546
      vertex 22.2375 -5.87313 40.6546
    endloop
  endfacet
  facet normal 0 0 1
    outer loop
      vertex 22.2375 -5.87313 40.6546
      vertex 20.1494 -5.91638 40.6546
      vertex 21.6503 -7.76303 40.6546
    endloop
  endfacet
  facet normal 0 0 1
    outer loop
      vertex 21.6503 -7.76303 40.6546
      vertex 19.4957 -7.80491 40.6546
      vertex 20.9028 -9.59545 40.6546
    endloop
  endfacet
  facet normal 0 0 1
    outer loop
      vertex 20.9028 -9.59545 40.6546
      vertex 18.6655 -9.62276 40.6546
      vertex 20.0006 -11.3568 40.6546
    endloop
  endfacet
  facet normal 0 0 1
    outer loop
      vertex 20.0006 -11.3568 40.6546
      vertex 17.6663 -11.3535 40.6546
      vertex 18.9502 -13.0341 40.6546
    endloop
  endfacet
  facet normal 0 0 1
    outer loop
      vertex 18.9502 -13.0341 40.6546
      vertex 16.5071 -12.9813 40.6546
      vertex 17.7596 -14.6149 40.6546
    endloop
  endfacet
  facet normal 0 0 1
    outer loop
      vertex 17.7596 -14.6149 40.6546
      vertex 15.1984 -14.4917 40.6546
      vertex 16.4375 -16.0875 40.6546
    endloop
  endfacet
  facet normal 0 0 1
    outer loop
      vertex 16.4375 -16.0875 40.6546
      vertex 13.7521 -15.8707 40.6546
      vertex 14.9937 -17.441 40.6546
    endloop
  endfacet
  facet normal 0 0 1
    outer loop
      vertex 14.9937 -17.441 40.6546
      vertex 12.1812 -17.1061 40.6546
      vertex 13.4389 -18.6654 40.6546
    endloop
  endfacet
  facet normal 0 0 1
    outer loop
      vertex 13.4389 -18.6654 40.6546
      vertex 10.5 -18.1865 40.6546
      vertex 11.7845 -19.7516 40.6546
    endloop
  endfacet
  facet normal 0 0 1
    outer loop
      vertex 13.7521 15.8707 40.6546
      vertex 15.1984 14.4917 40.6546
      vertex 16.4375 16.0875 40.6546
    endloop
  endfacet
  facet normal 0 0 1
    outer loop
      vertex 11.7845 -19.7516 40.6546
      vertex 8.72372 -19.1023 40.6546
      vertex 10.043 -20.6915 40.6546
    endloop
  endfacet
  facet normal 0 0 1
    outer loop
      vertex 15.1984 14.4917 40.6546
      vertex 16.5071 12.9813 40.6546
      vertex 17.7596 14.6149 40.6546
    endloop
  endfacet
  facet normal 0 0 1
    outer loop
      vertex 10.043 -20.6915 40.6546
      vertex 6.86843 -19.845 40.6546
      vertex 8.22706 -21.4783 40.6546
    endloop
  endfacet
  facet normal 0 0 1
    outer loop
      vertex 16.5071 12.9813 40.6546
      vertex 17.6663 11.3535 40.6546
      vertex 18.9502 13.0341 40.6546
    endloop
  endfacet
  facet normal 0 0 1
    outer loop
      vertex 8.22706 -21.4783 40.6546
      vertex 4.95094 -20.408 40.6546
      vertex 6.35023 -22.106 40.6546
    endloop
  endfacet
  facet normal 0 0 1
    outer loop
      vertex 17.6663 11.3535 40.6546
      vertex 18.6655 9.62276 40.6546
      vertex 20.0006 11.3568 40.6546
    endloop
  endfacet
  facet normal 0 0 1
    outer loop
      vertex 6.35023 -22.106 40.6546
      vertex 2.98861 -20.7862 40.6546
      vertex 4.42639 -22.57 40.6546
    endloop
  endfacet
  facet normal 0 0 1
    outer loop
      vertex 18.6655 9.62276 40.6546
      vertex 19.4957 7.80491 40.6546
      vertex 20.9028 9.59545 40.6546
    endloop
  endfacet
  facet normal 0 0 1
    outer loop
      vertex 4.42639 -22.57 40.6546
      vertex 0.99922 -20.9762 40.6546
      vertex 2.46977 -22.867 40.6546
    endloop
  endfacet
  facet normal 0 0 1
    outer loop
      vertex 19.4957 7.80491 40.6546
      vertex 20.1494 5.91638 40.6546
      vertex 21.6503 7.76303 40.6546
    endloop
  endfacet
  facet normal 0 0 1
    outer loop
      vertex 2.46977 -22.867 40.6546
      vertex -0.99922 -20.9762 40.6546
      vertex 0.49487 -22.9947 40.6546
    endloop
  endfacet
  facet normal 0 0 1
    outer loop
      vertex 20.1494 5.91638 40.6546
      vertex 20.6205 3.97428 40.6546
      vertex 22.2375 5.87313 40.6546
    endloop
  endfacet
  facet normal 0 0 1
    outer loop
      vertex 0.49487 -22.9947 40.6546
      vertex -2.98861 -20.7862 40.6546
      vertex -1.48369 -22.9521 40.6546
    endloop
  endfacet
  facet normal 0 0 1
    outer loop
      vertex 20.6205 3.97428 40.6546
      vertex 20.9049 1.99618 40.6546
      vertex 22.6601 3.93974 40.6546
    endloop
  endfacet
  facet normal 0 0 1
    outer loop
      vertex -1.48369 -22.9521 40.6546
      vertex -4.95094 -20.408 40.6546
      vertex -3.45127 -22.7396 40.6546
    endloop
  endfacet
  facet normal 0 0 1
    outer loop
      vertex 20.9049 1.99618 40.6546
      vertex 23 0 40.6546
      vertex 22.9149 1.97719 40.6546
    endloop
  endfacet
  facet normal 0 0 1
    outer loop
      vertex -3.45127 -22.7396 40.6546
      vertex -6.86843 -19.845 40.6546
      vertex -5.3933 -22.3587 40.6546
    endloop
  endfacet
  facet normal 0 0 1
    outer loop
      vertex 13.7521 -15.8707 40.6546
      vertex 12.1812 -17.1061 40.6546
      vertex 14.9937 -17.441 40.6546
    endloop
  endfacet
  facet normal 0 0 1
    outer loop
      vertex -5.3933 -22.3587 40.6546
      vertex -8.72372 -19.1023 40.6546
      vertex -7.2954 -21.8123 40.6546
    endloop
  endfacet
  facet normal 0 0 1
    outer loop
      vertex -7.2954 -21.8123 40.6546
      vertex -10.5 -18.1865 40.6546
      vertex -9.14349 -21.1044 40.6546
    endloop
  endfacet
  facet normal 0 0 1
    outer loop
      vertex 8.72372 -19.1023 40.6546
      vertex 6.86843 -19.845 40.6546
      vertex 10.043 -20.6915 40.6546
    endloop
  endfacet
  facet normal 0 0 1
    outer loop
      vertex -9.14349 -21.1044 40.6546
      vertex -12.1812 -17.1061 40.6546
      vertex -10.9239 -20.2403 40.6546
    endloop
  endfacet
  facet normal 0 0 1
    outer loop
      vertex 6.86843 -19.845 40.6546
      vertex 4.95094 -20.408 40.6546
      vertex 8.22706 -21.4783 40.6546
    endloop
  endfacet
  facet normal 0 0 1
    outer loop
      vertex -10.9239 -20.2403 40.6546
      vertex -13.7521 -15.8707 40.6546
      vertex -12.6234 -19.2263 40.6546
    endloop
  endfacet
  facet normal 0 0 1
    outer loop
      vertex 4.95094 -20.408 40.6546
      vertex 2.98861 -20.7862 40.6546
      vertex 6.35023 -22.106 40.6546
    endloop
  endfacet
  facet normal 0 0 1
    outer loop
      vertex -12.6234 -19.2263 40.6546
      vertex -15.1984 -14.4917 40.6546
      vertex -14.2294 -18.0699 40.6546
    endloop
  endfacet
  facet normal 0 0 1
    outer loop
      vertex 2.98861 -20.7862 40.6546
      vertex 0.99922 -20.9762 40.6546
      vertex 4.42639 -22.57 40.6546
    endloop
  endfacet
  facet normal 0 0 1
    outer loop
      vertex -15.1984 -14.4917 40.6546
      vertex -16.5071 -12.9813 40.6546
      vertex -14.2294 -18.0699 40.6546
    endloop
  endfacet
  facet normal 0 0 1
    outer loop
      vertex -14.2294 -18.0699 40.6546
      vertex -17.6663 -11.3535 40.6546
      vertex -15.7301 -16.7798 40.6546
    endloop
  endfacet
  facet normal 0 0 1
    outer loop
      vertex -15.7301 -16.7798 40.6546
      vertex -18.6655 -9.62276 40.6546
      vertex -17.1144 -15.3655 40.6546
    endloop
  endfacet
  facet normal 0 0 1
    outer loop
      vertex -18.6655 -9.62276 40.6546
      vertex -19.4957 -7.80491 40.6546
      vertex -17.1144 -15.3655 40.6546
    endloop
  endfacet
  facet normal 0 0 1
    outer loop
      vertex -20.1494 -5.91638 40.6546
      vertex -20.6205 -3.97428 40.6546
      vertex -22.9787 0.989511 40.6546
    endloop
  endfacet
  facet normal 0 0 1
    outer loop
      vertex -12.1812 -17.1061 40.6546
      vertex -13.7521 -15.8707 40.6546
      vertex -10.9239 -20.2403 40.6546
    endloop
  endfacet
  facet normal 0 0 1
    outer loop
      vertex -13.7521 -15.8707 40.6546
      vertex -15.1984 -14.4917 40.6546
      vertex -12.6234 -19.2263 40.6546
    endloop
  endfacet
  facet normal 0 0 1
    outer loop
      vertex -16.5071 -12.9813 40.6546
      vertex -17.6663 -11.3535 40.6546
      vertex -14.2294 -18.0699 40.6546
    endloop
  endfacet
  facet normal 0 0 1
    outer loop
      vertex -20.6205 -3.97428 40.6546
      vertex -20.9049 -1.99618 40.6546
      vertex -22.9787 0.989511 40.6546
    endloop
  endfacet
  facet normal 0 0 1
    outer loop
      vertex 0.99922 -20.9762 40.6546
      vertex -0.99922 -20.9762 40.6546
      vertex 2.46977 -22.867 40.6546
    endloop
  endfacet
  facet normal 0 0 1
    outer loop
      vertex -0.99922 -20.9762 40.6546
      vertex -2.98861 -20.7862 40.6546
      vertex 0.49487 -22.9947 40.6546
    endloop
  endfacet
  facet normal 0 0 1
    outer loop
      vertex -2.98861 -20.7862 40.6546
      vertex -4.95094 -20.408 40.6546
      vertex -1.48369 -22.9521 40.6546
    endloop
  endfacet
  facet normal 0 0 1
    outer loop
      vertex -4.95094 -20.408 40.6546
      vertex -6.86843 -19.845 40.6546
      vertex -3.45127 -22.7396 40.6546
    endloop
  endfacet
  facet normal 0 0 1
    outer loop
      vertex -17.6663 -11.3535 40.6546
      vertex -18.6655 -9.62276 40.6546
      vertex -15.7301 -16.7798 40.6546
    endloop
  endfacet
  facet normal 0 0 1
    outer loop
      vertex -8.72372 -19.1023 40.6546
      vertex -10.5 -18.1865 40.6546
      vertex -7.2954 -21.8123 40.6546
    endloop
  endfacet
  facet normal 0 0 1
    outer loop
      vertex -20.9049 -1.99618 40.6546
      vertex -21 0 40.6546
      vertex -22.9787 0.989511 40.6546
    endloop
  endfacet
  facet normal 0 0 1
    outer loop
      vertex 20.9049 -1.99618 40.6546
      vertex 20.6205 -3.97428 40.6546
      vertex 22.6601 -3.93974 40.6546
    endloop
  endfacet
  facet normal 0 0 1
    outer loop
      vertex 20.6205 -3.97428 40.6546
      vertex 20.1494 -5.91638 40.6546
      vertex 22.2375 -5.87313 40.6546
    endloop
  endfacet
  facet normal 0 0 1
    outer loop
      vertex 20.1494 -5.91638 40.6546
      vertex 19.4957 -7.80491 40.6546
      vertex 21.6503 -7.76303 40.6546
    endloop
  endfacet
  facet normal 0 0 1
    outer loop
      vertex 19.4957 -7.80491 40.6546
      vertex 18.6655 -9.62276 40.6546
      vertex 20.9028 -9.59545 40.6546
    endloop
  endfacet
  facet normal 0 0 1
    outer loop
      vertex 18.6655 -9.62276 40.6546
      vertex 17.6663 -11.3535 40.6546
      vertex 20.0006 -11.3568 40.6546
    endloop
  endfacet
  facet normal 0 0 1
    outer loop
      vertex 17.6663 -11.3535 40.6546
      vertex 16.5071 -12.9813 40.6546
      vertex 18.9502 -13.0341 40.6546
    endloop
  endfacet
  facet normal 0 0 1
    outer loop
      vertex 16.5071 -12.9813 40.6546
      vertex 15.1984 -14.4917 40.6546
      vertex 17.7596 -14.6149 40.6546
    endloop
  endfacet
  facet normal 0 0 1
    outer loop
      vertex 15.1984 -14.4917 40.6546
      vertex 13.7521 -15.8707 40.6546
      vertex 16.4375 -16.0875 40.6546
    endloop
  endfacet
  facet normal 0 0 1
    outer loop
      vertex -6.86843 -19.845 40.6546
      vertex -8.72372 -19.1023 40.6546
      vertex -5.3933 -22.3587 40.6546
    endloop
  endfacet
  facet normal 0 0 1
    outer loop
      vertex 12.1812 -17.1061 40.6546
      vertex 10.5 -18.1865 40.6546
      vertex 13.4389 -18.6654 40.6546
    endloop
  endfacet
  facet normal 0 0 1
    outer loop
      vertex -21 0 40.6546
      vertex -20.9049 1.99618 40.6546
      vertex -22.9787 0.989511 40.6546
    endloop
  endfacet
  facet normal -0.992633 -0.0856489 -0.0856949
    outer loop
      vertex -22.8086 -2.96121 40.6546
      vertex -22.9787 -0.989511 40.6546
      vertex -19.3377 -2.51059 0
    endloop
  endfacet
  facet normal -0.992633 -0.0856483 -0.085695
    outer loop
      vertex -19.3377 -2.51059 0
      vertex -22.9787 -0.989511 40.6546
      vertex -19.4819 -0.838934 0
    endloop
  endfacet
  facet normal -0.996321 0 -0.085695
    outer loop
      vertex -22.9787 -0.989511 40.6546
      vertex -22.9787 0.989511 40.6546
      vertex -19.4819 -0.838934 0
    endloop
  endfacet
  facet normal -0.996321 0 -0.085695
    outer loop
      vertex -19.4819 -0.838934 0
      vertex -22.9787 0.989511 40.6546
      vertex -19.4819 0.838934 0
    endloop
  endfacet
  facet normal -0.992633 0.0856489 -0.085695
    outer loop
      vertex -19.4819 0.838934 0
      vertex -22.9787 0.989511 40.6546
      vertex -22.8086 2.96121 40.6546
    endloop
  endfacet
  facet normal -0.992633 0.0856483 -0.0856949
    outer loop
      vertex -19.4819 0.838934 0
      vertex -22.8086 2.96121 40.6546
      vertex -19.3377 2.51059 0
    endloop
  endfacet
  facet normal -0.981596 0.170663 -0.0856949
    outer loop
      vertex -19.3377 2.51059 0
      vertex -22.8086 2.96121 40.6546
      vertex -22.4696 4.91098 40.6546
    endloop
  endfacet
  facet normal -0.981596 0.170663 -0.0856949
    outer loop
      vertex -19.3377 2.51059 0
      vertex -22.4696 4.91098 40.6546
      vertex -19.0503 4.16366 0
    endloop
  endfacet
  facet normal -0.963291 0.254414 -0.0856949
    outer loop
      vertex -19.0503 4.16366 0
      vertex -22.4696 4.91098 40.6546
      vertex -21.9642 6.82439 40.6546
    endloop
  endfacet
  facet normal -0.963291 0.254414 -0.0856949
    outer loop
      vertex -19.0503 4.16366 0
      vertex -21.9642 6.82439 40.6546
      vertex -18.6219 5.7859 0
    endloop
  endfacet
  facet normal -0.937855 0.336281 -0.0856949
    outer loop
      vertex -18.6219 5.7859 0
      vertex -21.9642 6.82439 40.6546
      vertex -21.2963 8.68728 40.6546
    endloop
  endfacet
  facet normal -0.937855 0.336282 -0.0856949
    outer loop
      vertex -18.6219 5.7859 0
      vertex -21.2963 8.68728 40.6546
      vertex -18.0555 7.3653 0
    endloop
  endfacet
  facet normal -0.905474 0.415659 -0.0856949
    outer loop
      vertex -18.0555 7.3653 0
      vertex -21.2963 8.68728 40.6546
      vertex -20.4706 10.4859 40.6546
    endloop
  endfacet
  facet normal -0.905475 0.415659 -0.0856949
    outer loop
      vertex -18.0555 7.3653 0
      vertex -20.4706 10.4859 40.6546
      vertex -17.3555 8.89018 0
    endloop
  endfacet
  facet normal -0.866391 0.491959 -0.0856949
    outer loop
      vertex -17.3555 8.89018 0
      vertex -20.4706 10.4859 40.6546
      vertex -19.4934 12.2068 40.6546
    endloop
  endfacet
  facet normal -0.86639 0.491959 -0.0856949
    outer loop
      vertex -17.3555 8.89018 0
      vertex -19.4934 12.2068 40.6546
      vertex -16.527 10.3492 0
    endloop
  endfacet
  facet normal -0.820892 0.564617 -0.0856949
    outer loop
      vertex -16.527 10.3492 0
      vertex -19.4934 12.2068 40.6546
      vertex -18.3719 13.8374 40.6546
    endloop
  endfacet
  facet normal -0.820892 0.564617 -0.0856949
    outer loop
      vertex -16.527 10.3492 0
      vertex -18.3719 13.8374 40.6546
      vertex -15.5762 11.7317 0
    endloop
  endfacet
  facet normal -0.769316 0.633095 -0.0856949
    outer loop
      vertex -15.5762 11.7317 0
      vertex -18.3719 13.8374 40.6546
      vertex -17.1144 15.3655 40.6546
    endloop
  endfacet
  facet normal -0.769316 0.633095 -0.085695
    outer loop
      vertex -15.5762 11.7317 0
      vertex -17.1144 15.3655 40.6546
      vertex -14.51 13.0272 0
    endloop
  endfacet
  facet normal -0.712044 0.696885 -0.085695
    outer loop
      vertex -14.51 13.0272 0
      vertex -17.1144 15.3655 40.6546
      vertex -15.7301 16.7798 40.6546
    endloop
  endfacet
  facet normal -0.712044 0.696885 -0.085695
    outer loop
      vertex -14.51 13.0272 0
      vertex -15.7301 16.7798 40.6546
      vertex -13.3364 14.2264 0
    endloop
  endfacet
  facet normal -0.649501 0.755516 -0.085695
    outer loop
      vertex -13.3364 14.2264 0
      vertex -15.7301 16.7798 40.6546
      vertex -14.2294 18.0699 40.6546
    endloop
  endfacet
  facet normal -0.649501 0.755516 -0.085695
    outer loop
      vertex -13.3364 14.2264 0
      vertex -14.2294 18.0699 40.6546
      vertex -12.0641 15.3202 0
    endloop
  endfacet
  facet normal -0.582149 0.808554 -0.085695
    outer loop
      vertex -12.0641 15.3202 0
      vertex -14.2294 18.0699 40.6546
      vertex -12.6234 19.2263 40.6546
    endloop
  endfacet
  facet normal -0.582149 0.808554 -0.0856949
    outer loop
      vertex -12.0641 15.3202 0
      vertex -12.6234 19.2263 40.6546
      vertex -10.7024 16.3005 0
    endloop
  endfacet
  facet normal -0.510487 0.855605 -0.0856949
    outer loop
      vertex -10.7024 16.3005 0
      vertex -12.6234 19.2263 40.6546
      vertex -10.9239 20.2403 40.6546
    endloop
  endfacet
  facet normal -0.510487 0.855605 -0.085695
    outer loop
      vertex -10.7024 16.3005 0
      vertex -10.9239 20.2403 40.6546
      vertex -9.26155 17.1602 0
    endloop
  endfacet
  facet normal -0.435045 0.896322 -0.0856949
    outer loop
      vertex -9.26155 17.1602 0
      vertex -10.9239 20.2403 40.6546
      vertex -9.14349 21.1044 40.6546
    endloop
  endfacet
  facet normal -0.435045 0.896321 -0.0856949
    outer loop
      vertex -7.75208 17.8929 0
      vertex -9.26155 17.1602 0
      vertex -9.14349 21.1044 40.6546
    endloop
  endfacet
  facet normal -0.356382 0.930402 -0.0856949
    outer loop
      vertex -7.75208 17.8929 0
      vertex -9.14349 21.1044 40.6546
      vertex -7.2954 21.8123 40.6546
    endloop
  endfacet
  facet normal -0.356382 0.930402 -0.0856949
    outer loop
      vertex -6.18523 18.4931 0
      vertex -7.75208 17.8929 0
      vertex -7.2954 21.8123 40.6546
    endloop
  endfacet
  facet normal -0.275082 0.957594 -0.0856949
    outer loop
      vertex -6.18523 18.4931 0
      vertex -7.2954 21.8123 40.6546
      vertex -5.3933 22.3587 40.6546
    endloop
  endfacet
  facet normal -0.275081 0.957594 -0.0856949
    outer loop
      vertex -4.57258 18.9563 0
      vertex -6.18523 18.4931 0
      vertex -5.3933 22.3587 40.6546
    endloop
  endfacet
  facet normal -0.191744 0.977697 -0.0856949
    outer loop
      vertex -4.57258 18.9563 0
      vertex -5.3933 22.3587 40.6546
      vertex -3.45127 22.7396 40.6546
    endloop
  endfacet
  facet normal -0.191744 0.977697 -0.085695
    outer loop
      vertex -2.92608 19.2792 0
      vertex -4.57258 18.9563 0
      vertex -3.45127 22.7396 40.6546
    endloop
  endfacet
  facet normal -0.106986 0.990561 -0.085695
    outer loop
      vertex -2.92608 19.2792 0
      vertex -3.45127 22.7396 40.6546
      vertex -1.48369 22.9521 40.6546
    endloop
  endfacet
  facet normal -0.106987 0.990561 -0.0856949
    outer loop
      vertex -1.25791 19.4594 0
      vertex -2.92608 19.2792 0
      vertex -1.48369 22.9521 40.6546
    endloop
  endfacet
  facet normal -0.021437 0.996091 -0.0856949
    outer loop
      vertex -1.25791 19.4594 0
      vertex -1.48369 22.9521 40.6546
      vertex 0.49487 22.9947 40.6546
    endloop
  endfacet
  facet normal -0.0214369 0.996091 -0.0856949
    outer loop
      vertex 0.419564 19.4955 0
      vertex -1.25791 19.4594 0
      vertex 0.49487 22.9947 40.6546
    endloop
  endfacet
  facet normal 0.0642713 0.994246 -0.0856949
    outer loop
      vertex 2.46977 22.867 40.6546
      vertex 0.419564 19.4955 0
      vertex 0.49487 22.9947 40.6546
    endloop
  endfacet
  facet normal 0.0642714 0.994246 -0.085695
    outer loop
      vertex 2.09394 19.3872 0
      vertex 0.419564 19.4955 0
      vertex 2.46977 22.867 40.6546
    endloop
  endfacet
  facet normal 0.149503 0.985041 -0.085695
    outer loop
      vertex 4.42639 22.57 40.6546
      vertex 2.09394 19.3872 0
      vertex 2.46977 22.867 40.6546
    endloop
  endfacet
  facet normal 0.149503 0.985041 -0.0856949
    outer loop
      vertex 3.75281 19.1355 0
      vertex 2.09394 19.3872 0
      vertex 4.42639 22.57 40.6546
    endloop
  endfacet
  facet normal 0.233629 0.968542 -0.0856949
    outer loop
      vertex 6.35023 22.106 40.6546
      vertex 3.75281 19.1355 0
      vertex 4.42639 22.57 40.6546
    endloop
  endfacet
  facet normal 0.233629 0.968542 -0.0856949
    outer loop
      vertex 5.38389 18.742 0
      vertex 3.75281 19.1355 0
      vertex 6.35023 22.106 40.6546
    endloop
  endfacet
  facet normal 0.316025 0.944873 -0.0856949
    outer loop
      vertex 8.22706 21.4783 40.6546
      vertex 5.38389 18.742 0
      vertex 6.35023 22.106 40.6546
    endloop
  endfacet
  facet normal 0.316025 0.944873 -0.0856949
    outer loop
      vertex 6.97512 18.2098 0
      vertex 5.38389 18.742 0
      vertex 8.22706 21.4783 40.6546
    endloop
  endfacet
  facet normal 0.39608 0.914208 -0.0856949
    outer loop
      vertex 10.043 20.6915 40.6546
      vertex 6.97512 18.2098 0
      vertex 8.22706 21.4783 40.6546
    endloop
  endfacet
  facet normal 0.39608 0.914208 -0.0856949
    outer loop
      vertex 8.5147 17.5428 0
      vertex 6.97512 18.2098 0
      vertex 10.043 20.6915 40.6546
    endloop
  endfacet
  facet normal 0.473204 0.876775 -0.0856949
    outer loop
      vertex 11.7845 19.7516 40.6546
      vertex 8.5147 17.5428 0
      vertex 10.043 20.6915 40.6546
    endloop
  endfacet
  facet normal 0.473204 0.876775 -0.0856949
    outer loop
      vertex 9.99124 16.7459 0
      vertex 8.5147 17.5428 0
      vertex 11.7845 19.7516 40.6546
    endloop
  endfacet
  facet normal 0.546824 0.83285 -0.0856949
    outer loop
      vertex 13.4389 18.6654 40.6546
      vertex 9.99124 16.7459 0
      vertex 11.7845 19.7516 40.6546
    endloop
  endfacet
  facet normal 0.546824 0.83285 -0.0856949
    outer loop
      vertex 11.3938 15.825 0
      vertex 9.99124 16.7459 0
      vertex 13.4389 18.6654 40.6546
    endloop
  endfacet
  facet normal 0.616395 0.78276 -0.0856949
    outer loop
      vertex 14.9937 17.441 40.6546
      vertex 11.3938 15.825 0
      vertex 13.4389 18.6654 40.6546
    endloop
  endfacet
  facet normal 0.616396 0.78276 -0.085695
    outer loop
      vertex 12.712 14.787 0
      vertex 11.3938 15.825 0
      vertex 14.9937 17.441 40.6546
    endloop
  endfacet
  facet normal 0.681404 0.726874 -0.085695
    outer loop
      vertex 16.4375 16.0875 40.6546
      vertex 12.712 14.787 0
      vertex 14.9937 17.441 40.6546
    endloop
  endfacet
  facet normal 0.681403 0.726874 -0.085695
    outer loop
      vertex 13.9361 13.6394 0
      vertex 12.712 14.787 0
      vertex 16.4375 16.0875 40.6546
    endloop
  endfacet
  facet normal 0.741367 0.665606 -0.085695
    outer loop
      vertex 17.7596 14.6149 40.6546
      vertex 13.9361 13.6394 0
      vertex 16.4375 16.0875 40.6546
    endloop
  endfacet
  facet normal 0.741367 0.665606 -0.0856949
    outer loop
      vertex 15.0571 12.3909 0
      vertex 13.9361 13.6394 0
      vertex 17.7596 14.6149 40.6546
    endloop
  endfacet
  facet normal 0.795841 0.599411 -0.0856949
    outer loop
      vertex 18.9502 13.0341 40.6546
      vertex 15.0571 12.3909 0
      vertex 17.7596 14.6149 40.6546
    endloop
  endfacet
  facet normal 0.795841 0.599411 -0.0856949
    outer loop
      vertex 16.0665 11.0507 0
      vertex 15.0571 12.3909 0
      vertex 18.9502 13.0341 40.6546
    endloop
  endfacet
  facet normal 0.844423 0.528778 -0.0856949
    outer loop
      vertex 20.0006 11.3568 40.6546
      vertex 16.0665 11.0507 0
      vertex 18.9502 13.0341 40.6546
    endloop
  endfacet
  facet normal 0.844423 0.528778 -0.085695
    outer loop
      vertex 16.957 9.62862 0
      vertex 16.0665 11.0507 0
      vertex 20.0006 11.3568 40.6546
    endloop
  endfacet
  facet normal 0.886754 0.45423 -0.085695
    outer loop
      vertex 20.9028 9.59545 40.6546
      vertex 16.957 9.62862 0
      vertex 20.0006 11.3568 40.6546
    endloop
  endfacet
  facet normal 0.886754 0.45423 -0.085695
    outer loop
      vertex 17.7219 8.13528 0
      vertex 16.957 9.62862 0
      vertex 20.9028 9.59545 40.6546
    endloop
  endfacet
  facet normal 0.922519 0.376318 -0.0856949
    outer loop
      vertex 21.6503 7.76303 40.6546
      vertex 17.7219 8.13528 0
      vertex 20.9028 9.59545 40.6546
    endloop
  endfacet
  facet normal 0.922519 0.376319 -0.0856949
    outer loop
      vertex 18.3557 6.5817 0
      vertex 17.7219 8.13528 0
      vertex 21.6503 7.76303 40.6546
    endloop
  endfacet
  facet normal 0.951454 0.295622 -0.0856949
    outer loop
      vertex 22.2375 5.87313 40.6546
      vertex 18.3557 6.5817 0
      vertex 21.6503 7.76303 40.6546
    endloop
  endfacet
  facet normal 0.951454 0.295621 -0.085695
    outer loop
      vertex 18.8535 4.97939 0
      vertex 18.3557 6.5817 0
      vertex 22.2375 5.87313 40.6546
    endloop
  endfacet
  facet normal 0.973345 0.212735 -0.085695
    outer loop
      vertex 22.6601 3.93974 40.6546
      vertex 18.8535 4.97939 0
      vertex 22.2375 5.87313 40.6546
    endloop
  endfacet
  facet normal 0.973345 0.212736 -0.0856949
    outer loop
      vertex 19.2118 3.34022 0
      vertex 18.8535 4.97939 0
      vertex 22.6601 3.93974 40.6546
    endloop
  endfacet
  facet normal 0.988029 0.128275 -0.0856949
    outer loop
      vertex 22.9149 1.97719 40.6546
      vertex 19.2118 3.34022 0
      vertex 22.6601 3.93974 40.6546
    endloop
  endfacet
  facet normal 0.988029 0.128274 -0.0856949
    outer loop
      vertex 19.4278 1.67631 0
      vertex 19.2118 3.34022 0
      vertex 22.9149 1.97719 40.6546
    endloop
  endfacet
  facet normal 0.995399 0.042864 -0.0856949
    outer loop
      vertex 23 0 40.6546
      vertex 19.4278 1.67631 0
      vertex 22.9149 1.97719 40.6546
    endloop
  endfacet
  facet normal 0.995399 0.0428642 -0.0856949
    outer loop
      vertex 19.5 0 0
      vertex 19.4278 1.67631 0
      vertex 23 0 40.6546
    endloop
  endfacet
  facet normal 0.995399 -0.042864 -0.0856949
    outer loop
      vertex 22.9149 -1.97719 40.6546
      vertex 19.5 0 0
      vertex 23 0 40.6546
    endloop
  endfacet
  facet normal 0.995399 -0.0428642 -0.085695
    outer loop
      vertex 22.9149 -1.97719 40.6546
      vertex 19.4278 -1.67631 0
      vertex 19.5 0 0
    endloop
  endfacet
  facet normal 0.988029 -0.128275 -0.0856949
    outer loop
      vertex 22.6601 -3.93974 40.6546
      vertex 19.4278 -1.67631 0
      vertex 22.9149 -1.97719 40.6546
    endloop
  endfacet
  facet normal 0.988029 -0.128274 -0.0856949
    outer loop
      vertex 22.6601 -3.93974 40.6546
      vertex 19.2118 -3.34022 0
      vertex 19.4278 -1.67631 0
    endloop
  endfacet
  facet normal 0.973345 -0.212735 -0.0856949
    outer loop
      vertex 22.2375 -5.87313 40.6546
      vertex 19.2118 -3.34022 0
      vertex 22.6601 -3.93974 40.6546
    endloop
  endfacet
  facet normal 0.973345 -0.212736 -0.085695
    outer loop
      vertex 22.2375 -5.87313 40.6546
      vertex 18.8535 -4.97939 0
      vertex 19.2118 -3.34022 0
    endloop
  endfacet
  facet normal 0.951454 -0.295622 -0.085695
    outer loop
      vertex 21.6503 -7.76303 40.6546
      vertex 18.8535 -4.97939 0
      vertex 22.2375 -5.87313 40.6546
    endloop
  endfacet
  facet normal 0.951454 -0.295621 -0.0856949
    outer loop
      vertex 21.6503 -7.76303 40.6546
      vertex 18.3557 -6.5817 0
      vertex 18.8535 -4.97939 0
    endloop
  endfacet
  facet normal 0.922519 -0.376318 -0.0856949
    outer loop
      vertex 20.9028 -9.59545 40.6546
      vertex 18.3557 -6.5817 0
      vertex 21.6503 -7.76303 40.6546
    endloop
  endfacet
  facet normal 0.922519 -0.376319 -0.085695
    outer loop
      vertex 20.9028 -9.59545 40.6546
      vertex 17.7219 -8.13528 0
      vertex 18.3557 -6.5817 0
    endloop
  endfacet
  facet normal 0.886754 -0.45423 -0.085695
    outer loop
      vertex 20.0006 -11.3568 40.6546
      vertex 17.7219 -8.13528 0
      vertex 20.9028 -9.59545 40.6546
    endloop
  endfacet
  facet normal 0.886754 -0.45423 -0.085695
    outer loop
      vertex 20.0006 -11.3568 40.6546
      vertex 16.957 -9.62862 0
      vertex 17.7219 -8.13528 0
    endloop
  endfacet
  facet normal 0.844423 -0.528778 -0.085695
    outer loop
      vertex 18.9502 -13.0341 40.6546
      vertex 16.957 -9.62862 0
      vertex 20.0006 -11.3568 40.6546
    endloop
  endfacet
  facet normal 0.844423 -0.528778 -0.0856949
    outer loop
      vertex 18.9502 -13.0341 40.6546
      vertex 16.0665 -11.0507 0
      vertex 16.957 -9.62862 0
    endloop
  endfacet
  facet normal 0.795841 -0.599411 -0.0856949
    outer loop
      vertex 17.7596 -14.6149 40.6546
      vertex 16.0665 -11.0507 0
      vertex 18.9502 -13.0341 40.6546
    endloop
  endfacet
  facet normal 0.795841 -0.599411 -0.0856949
    outer loop
      vertex 17.7596 -14.6149 40.6546
      vertex 15.0571 -12.3909 0
      vertex 16.0665 -11.0507 0
    endloop
  endfacet
  facet normal 0.741367 -0.665606 -0.0856949
    outer loop
      vertex 16.4375 -16.0875 40.6546
      vertex 15.0571 -12.3909 0
      vertex 17.7596 -14.6149 40.6546
    endloop
  endfacet
  facet normal 0.741367 -0.665606 -0.085695
    outer loop
      vertex 16.4375 -16.0875 40.6546
      vertex 13.9361 -13.6394 0
      vertex 15.0571 -12.3909 0
    endloop
  endfacet
  facet normal 0.681404 -0.726874 -0.085695
    outer loop
      vertex 14.9937 -17.441 40.6546
      vertex 13.9361 -13.6394 0
      vertex 16.4375 -16.0875 40.6546
    endloop
  endfacet
  facet normal 0.681403 -0.726874 -0.085695
    outer loop
      vertex 14.9937 -17.441 40.6546
      vertex 12.712 -14.787 0
      vertex 13.9361 -13.6394 0
    endloop
  endfacet
  facet normal 0.616395 -0.78276 -0.085695
    outer loop
      vertex 13.4389 -18.6654 40.6546
      vertex 12.712 -14.787 0
      vertex 14.9937 -17.441 40.6546
    endloop
  endfacet
  facet normal 0.616396 -0.78276 -0.0856949
    outer loop
      vertex 13.4389 -18.6654 40.6546
      vertex 11.3938 -15.825 0
      vertex 12.712 -14.787 0
    endloop
  endfacet
  facet normal 0.546824 -0.83285 -0.0856949
    outer loop
      vertex 11.7845 -19.7516 40.6546
      vertex 11.3938 -15.825 0
      vertex 13.4389 -18.6654 40.6546
    endloop
  endfacet
  facet normal 0.546824 -0.83285 -0.0856949
    outer loop
      vertex 11.7845 -19.7516 40.6546
      vertex 9.99124 -16.7459 0
      vertex 11.3938 -15.825 0
    endloop
  endfacet
  facet normal 0.473204 -0.876775 -0.0856949
    outer loop
      vertex 10.043 -20.6915 40.6546
      vertex 9.99124 -16.7459 0
      vertex 11.7845 -19.7516 40.6546
    endloop
  endfacet
  facet normal 0.473204 -0.876775 -0.0856949
    outer loop
      vertex 10.043 -20.6915 40.6546
      vertex 8.5147 -17.5428 0
      vertex 9.99124 -16.7459 0
    endloop
  endfacet
  facet normal 0.39608 -0.914208 -0.0856949
    outer loop
      vertex 10.043 -20.6915 40.6546
      vertex 8.22706 -21.4783 40.6546
      vertex 8.5147 -17.5428 0
    endloop
  endfacet
  facet normal 0.396081 -0.914208 -0.0856949
    outer loop
      vertex 8.22706 -21.4783 40.6546
      vertex 6.97512 -18.2098 0
      vertex 8.5147 -17.5428 0
    endloop
  endfacet
  facet normal 0.316025 -0.944873 -0.0856949
    outer loop
      vertex 8.22706 -21.4783 40.6546
      vertex 6.35023 -22.106 40.6546
      vertex 6.97512 -18.2098 0
    endloop
  endfacet
  facet normal 0.316025 -0.944873 -0.0856949
    outer loop
      vertex 6.35023 -22.106 40.6546
      vertex 5.38389 -18.742 0
      vertex 6.97512 -18.2098 0
    endloop
  endfacet
  facet normal 0.233629 -0.968542 -0.0856949
    outer loop
      vertex 6.35023 -22.106 40.6546
      vertex 4.42639 -22.57 40.6546
      vertex 5.38389 -18.742 0
    endloop
  endfacet
  facet normal 0.233629 -0.968542 -0.0856949
    outer loop
      vertex 4.42639 -22.57 40.6546
      vertex 3.75281 -19.1355 0
      vertex 5.38389 -18.742 0
    endloop
  endfacet
  facet normal 0.149503 -0.985041 -0.0856949
    outer loop
      vertex 4.42639 -22.57 40.6546
      vertex 2.46977 -22.867 40.6546
      vertex 3.75281 -19.1355 0
    endloop
  endfacet
  facet normal 0.149503 -0.985041 -0.085695
    outer loop
      vertex 2.46977 -22.867 40.6546
      vertex 2.09394 -19.3872 0
      vertex 3.75281 -19.1355 0
    endloop
  endfacet
  facet normal 0.0642713 -0.994246 -0.085695
    outer loop
      vertex 2.46977 -22.867 40.6546
      vertex 0.49487 -22.9947 40.6546
      vertex 2.09394 -19.3872 0
    endloop
  endfacet
  facet normal 0.0642714 -0.994246 -0.0856949
    outer loop
      vertex 0.49487 -22.9947 40.6546
      vertex 0.419564 -19.4955 0
      vertex 2.09394 -19.3872 0
    endloop
  endfacet
  facet normal -0.021437 -0.996091 -0.0856949
    outer loop
      vertex 0.49487 -22.9947 40.6546
      vertex -1.48369 -22.9521 40.6546
      vertex 0.419564 -19.4955 0
    endloop
  endfacet
  facet normal -0.0214369 -0.996091 -0.0856949
    outer loop
      vertex 0.419564 -19.4955 0
      vertex -1.48369 -22.9521 40.6546
      vertex -1.25791 -19.4594 0
    endloop
  endfacet
  facet normal -0.106986 -0.990561 -0.0856949
    outer loop
      vertex -1.48369 -22.9521 40.6546
      vertex -3.45127 -22.7396 40.6546
      vertex -1.25791 -19.4594 0
    endloop
  endfacet
  facet normal -0.106987 -0.990561 -0.085695
    outer loop
      vertex -1.25791 -19.4594 0
      vertex -3.45127 -22.7396 40.6546
      vertex -2.92608 -19.2792 0
    endloop
  endfacet
  facet normal -0.191744 -0.977697 -0.085695
    outer loop
      vertex -3.45127 -22.7396 40.6546
      vertex -5.3933 -22.3587 40.6546
      vertex -2.92608 -19.2792 0
    endloop
  endfacet
  facet normal -0.191744 -0.977697 -0.0856949
    outer loop
      vertex -2.92608 -19.2792 0
      vertex -5.3933 -22.3587 40.6546
      vertex -4.57258 -18.9563 0
    endloop
  endfacet
  facet normal -0.275082 -0.957594 -0.0856949
    outer loop
      vertex -5.3933 -22.3587 40.6546
      vertex -7.2954 -21.8123 40.6546
      vertex -4.57258 -18.9563 0
    endloop
  endfacet
  facet normal -0.275081 -0.957594 -0.0856949
    outer loop
      vertex -4.57258 -18.9563 0
      vertex -7.2954 -21.8123 40.6546
      vertex -6.18523 -18.4931 0
    endloop
  endfacet
  facet normal -0.356382 -0.930402 -0.0856949
    outer loop
      vertex -7.2954 -21.8123 40.6546
      vertex -9.14349 -21.1044 40.6546
      vertex -6.18523 -18.4931 0
    endloop
  endfacet
  facet normal -0.356382 -0.930402 -0.0856949
    outer loop
      vertex -6.18523 -18.4931 0
      vertex -9.14349 -21.1044 40.6546
      vertex -7.75208 -17.8929 0
    endloop
  endfacet
  facet normal -0.435045 -0.896322 -0.0856949
    outer loop
      vertex -9.14349 -21.1044 40.6546
      vertex -10.9239 -20.2403 40.6546
      vertex -7.75208 -17.8929 0
    endloop
  endfacet
  facet normal -0.435045 -0.896321 -0.085695
    outer loop
      vertex -7.75208 -17.8929 0
      vertex -10.9239 -20.2403 40.6546
      vertex -9.26155 -17.1602 0
    endloop
  endfacet
  facet normal -0.510487 -0.855605 -0.0856949
    outer loop
      vertex -10.9239 -20.2403 40.6546
      vertex -12.6234 -19.2263 40.6546
      vertex -9.26155 -17.1602 0
    endloop
  endfacet
  facet normal -0.510487 -0.855605 -0.0856949
    outer loop
      vertex -9.26155 -17.1602 0
      vertex -12.6234 -19.2263 40.6546
      vertex -10.7024 -16.3005 0
    endloop
  endfacet
  facet normal -0.582149 -0.808554 -0.0856949
    outer loop
      vertex -12.6234 -19.2263 40.6546
      vertex -14.2294 -18.0699 40.6546
      vertex -10.7024 -16.3005 0
    endloop
  endfacet
  facet normal -0.582149 -0.808554 -0.085695
    outer loop
      vertex -10.7024 -16.3005 0
      vertex -14.2294 -18.0699 40.6546
      vertex -12.0641 -15.3202 0
    endloop
  endfacet
  facet normal -0.649501 -0.755516 -0.085695
    outer loop
      vertex -14.2294 -18.0699 40.6546
      vertex -15.7301 -16.7798 40.6546
      vertex -12.0641 -15.3202 0
    endloop
  endfacet
  facet normal -0.649501 -0.755516 -0.085695
    outer loop
      vertex -12.0641 -15.3202 0
      vertex -15.7301 -16.7798 40.6546
      vertex -13.3364 -14.2264 0
    endloop
  endfacet
  facet normal -0.712044 -0.696885 -0.085695
    outer loop
      vertex -15.7301 -16.7798 40.6546
      vertex -17.1144 -15.3655 40.6546
      vertex -13.3364 -14.2264 0
    endloop
  endfacet
  facet normal -0.712044 -0.696885 -0.085695
    outer loop
      vertex -13.3364 -14.2264 0
      vertex -17.1144 -15.3655 40.6546
      vertex -14.51 -13.0272 0
    endloop
  endfacet
  facet normal -0.769316 -0.633095 -0.085695
    outer loop
      vertex -17.1144 -15.3655 40.6546
      vertex -18.3719 -13.8374 40.6546
      vertex -14.51 -13.0272 0
    endloop
  endfacet
  facet normal -0.769316 -0.633095 -0.0856949
    outer loop
      vertex -14.51 -13.0272 0
      vertex -18.3719 -13.8374 40.6546
      vertex -15.5762 -11.7317 0
    endloop
  endfacet
  facet normal -0.820892 -0.564617 -0.0856949
    outer loop
      vertex -18.3719 -13.8374 40.6546
      vertex -19.4934 -12.2068 40.6546
      vertex -15.5762 -11.7317 0
    endloop
  endfacet
  facet normal -0.820892 -0.564617 -0.0856949
    outer loop
      vertex -15.5762 -11.7317 0
      vertex -19.4934 -12.2068 40.6546
      vertex -16.527 -10.3492 0
    endloop
  endfacet
  facet normal -0.866391 -0.491959 -0.0856949
    outer loop
      vertex -19.4934 -12.2068 40.6546
      vertex -20.4706 -10.4859 40.6546
      vertex -16.527 -10.3492 0
    endloop
  endfacet
  facet normal -0.86639 -0.491959 -0.0856949
    outer loop
      vertex -16.527 -10.3492 0
      vertex -20.4706 -10.4859 40.6546
      vertex -17.3555 -8.89018 0
    endloop
  endfacet
  facet normal -0.905474 -0.415659 -0.0856949
    outer loop
      vertex -20.4706 -10.4859 40.6546
      vertex -21.2963 -8.68728 40.6546
      vertex -17.3555 -8.89018 0
    endloop
  endfacet
  facet normal -0.905475 -0.415659 -0.085695
    outer loop
      vertex -17.3555 -8.89018 0
      vertex -21.2963 -8.68728 40.6546
      vertex -18.0555 -7.3653 0
    endloop
  endfacet
  facet normal -0.937855 -0.336281 -0.0856949
    outer loop
      vertex -21.2963 -8.68728 40.6546
      vertex -21.9642 -6.82439 40.6546
      vertex -18.0555 -7.3653 0
    endloop
  endfacet
  facet normal -0.937855 -0.336282 -0.0856949
    outer loop
      vertex -18.0555 -7.3653 0
      vertex -21.9642 -6.82439 40.6546
      vertex -18.6219 -5.7859 0
    endloop
  endfacet
  facet normal -0.963291 -0.254414 -0.0856949
    outer loop
      vertex -21.9642 -6.82439 40.6546
      vertex -22.4696 -4.91098 40.6546
      vertex -18.6219 -5.7859 0
    endloop
  endfacet
  facet normal -0.963291 -0.254414 -0.0856949
    outer loop
      vertex -18.6219 -5.7859 0
      vertex -22.4696 -4.91098 40.6546
      vertex -19.0503 -4.16366 0
    endloop
  endfacet
  facet normal -0.981596 -0.170663 -0.0856949
    outer loop
      vertex -22.4696 -4.91098 40.6546
      vertex -22.8086 -2.96121 40.6546
      vertex -19.0503 -4.16366 0
    endloop
  endfacet
  facet normal -0.981596 -0.170663 -0.0856949
    outer loop
      vertex -19.0503 -4.16366 0
      vertex -22.8086 -2.96121 40.6546
      vertex -19.3377 -2.51059 0
    endloop
  endfacet
  facet normal 0.994807 0.0473887 0.0900752
    outer loop
      vertex -20.9049 -1.99618 40.6546
      vertex -17.4208 -1.66348 2
      vertex -21 0 40.6546
    endloop
  endfacet
  facet normal 0.985798 0.141737 0.0900752
    outer loop
      vertex -17.1838 -3.3119 2
      vertex -17.4208 -1.66348 2
      vertex -20.9049 -1.99618 40.6546
    endloop
  endfacet
  facet normal 0.985798 0.141736 0.0900752
    outer loop
      vertex -20.6205 -3.97428 40.6546
      vertex -17.1838 -3.3119 2
      vertex -20.9049 -1.99618 40.6546
    endloop
  endfacet
  facet normal 0.967861 0.2348 0.0900752
    outer loop
      vertex -16.7911 -4.93032 2
      vertex -17.1838 -3.3119 2
      vertex -20.6205 -3.97428 40.6546
    endloop
  endfacet
  facet normal 0.967861 0.234801 0.0900752
    outer loop
      vertex -20.1494 -5.91638 40.6546
      vertex -16.7911 -4.93032 2
      vertex -20.6205 -3.97428 40.6546
    endloop
  endfacet
  facet normal 0.941159 0.325738 0.0900752
    outer loop
      vertex -16.2464 -6.50409 2
      vertex -16.7911 -4.93032 2
      vertex -20.1494 -5.91638 40.6546
    endloop
  endfacet
  facet normal 0.941159 0.325738 0.0900752
    outer loop
      vertex -19.4957 -7.80491 40.6546
      vertex -16.2464 -6.50409 2
      vertex -20.1494 -5.91638 40.6546
    endloop
  endfacet
  facet normal 0.905934 0.413727 0.0900752
    outer loop
      vertex -15.5546 -8.01896 2
      vertex -16.2464 -6.50409 2
      vertex -19.4957 -7.80491 40.6546
    endloop
  endfacet
  facet normal 0.905934 0.413727 0.0900752
    outer loop
      vertex -18.6655 -9.62276 40.6546
      vertex -15.5546 -8.01896 2
      vertex -19.4957 -7.80491 40.6546
    endloop
  endfacet
  facet normal 0.862505 0.497967 0.0900752
    outer loop
      vertex -14.7219 -9.46121 2
      vertex -15.5546 -8.01896 2
      vertex -18.6655 -9.62276 40.6546
    endloop
  endfacet
  facet normal 0.862505 0.497967 0.0900752
    outer loop
      vertex -17.6663 -11.3535 40.6546
      vertex -14.7219 -9.46121 2
      vertex -18.6655 -9.62276 40.6546
    endloop
  endfacet
  facet normal 0.811265 0.577699 0.0900752
    outer loop
      vertex -13.7559 -10.8178 2
      vertex -14.7219 -9.46121 2
      vertex -17.6663 -11.3535 40.6546
    endloop
  endfacet
  facet normal 0.811265 0.577699 0.0900752
    outer loop
      vertex -16.5071 -12.9813 40.6546
      vertex -13.7559 -10.8178 2
      vertex -17.6663 -11.3535 40.6546
    endloop
  endfacet
  facet normal 0.752678 0.652198 0.0900752
    outer loop
      vertex -12.6653 -12.0764 2
      vertex -13.7559 -10.8178 2
      vertex -16.5071 -12.9813 40.6546
    endloop
  endfacet
  facet normal 0.752677 0.652199 0.0900752
    outer loop
      vertex -15.1984 -14.4917 40.6546
      vertex -12.6653 -12.0764 2
      vertex -16.5071 -12.9813 40.6546
    endloop
  endfacet
  facet normal 0.687274 0.720792 0.0900752
    outer loop
      vertex -11.4601 -13.2256 2
      vertex -12.6653 -12.0764 2
      vertex -15.1984 -14.4917 40.6546
    endloop
  endfacet
  facet normal 0.687274 0.720792 0.0900752
    outer loop
      vertex -13.7521 -15.8707 40.6546
      vertex -11.4601 -13.2256 2
      vertex -15.1984 -14.4917 40.6546
    endloop
  endfacet
  facet normal 0.615646 0.782858 0.0900752
    outer loop
      vertex -10.151 -14.2551 2
      vertex -11.4601 -13.2256 2
      vertex -13.7521 -15.8707 40.6546
    endloop
  endfacet
  facet normal 0.615646 0.782858 0.0900752
    outer loop
      vertex -12.1812 -17.1061 40.6546
      vertex -10.151 -14.2551 2
      vertex -13.7521 -15.8707 40.6546
    endloop
  endfacet
  facet normal 0.538443 0.837834 0.0900752
    outer loop
      vertex -8.75 -15.1554 2
      vertex -10.151 -14.2551 2
      vertex -12.1812 -17.1061 40.6546
    endloop
  endfacet
  facet normal 0.538443 0.837834 0.0900752
    outer loop
      vertex -10.5 -18.1865 40.6546
      vertex -8.75 -15.1554 2
      vertex -12.1812 -17.1061 40.6546
    endloop
  endfacet
  facet normal 0.456364 0.885222 0.0900752
    outer loop
      vertex -7.26976 -15.9186 2
      vertex -8.75 -15.1554 2
      vertex -10.5 -18.1865 40.6546
    endloop
  endfacet
  facet normal 0.456364 0.885222 0.0900752
    outer loop
      vertex -8.72372 -19.1023 40.6546
      vertex -7.26976 -15.9186 2
      vertex -10.5 -18.1865 40.6546
    endloop
  endfacet
  facet normal 0.370151 0.924594 0.0900752
    outer loop
      vertex -5.72369 -16.5375 2
      vertex -7.26976 -15.9186 2
      vertex -8.72372 -19.1023 40.6546
    endloop
  endfacet
  facet normal 0.370152 0.924594 0.0900752
    outer loop
      vertex -6.86843 -19.845 40.6546
      vertex -5.72369 -16.5375 2
      vertex -8.72372 -19.1023 40.6546
    endloop
  endfacet
  facet normal 0.280587 0.955593 0.0900752
    outer loop
      vertex -4.12578 -17.0067 2
      vertex -5.72369 -16.5375 2
      vertex -6.86843 -19.845 40.6546
    endloop
  endfacet
  facet normal 0.280588 0.955593 0.0900752
    outer loop
      vertex -4.95094 -20.408 40.6546
      vertex -4.12578 -17.0067 2
      vertex -6.86843 -19.845 40.6546
    endloop
  endfacet
  facet normal 0.188482 0.977937 0.0900752
    outer loop
      vertex -2.49051 -17.3219 2
      vertex -4.12578 -17.0067 2
      vertex -4.95094 -20.408 40.6546
    endloop
  endfacet
  facet normal 0.188482 0.977937 0.0900752
    outer loop
      vertex -2.98861 -20.7862 40.6546
      vertex -2.49051 -17.3219 2
      vertex -4.95094 -20.408 40.6546
    endloop
  endfacet
  facet normal 0.0946695 0.991425 0.0900752
    outer loop
      vertex -0.832684 -17.4802 2
      vertex -2.49051 -17.3219 2
      vertex -2.98861 -20.7862 40.6546
    endloop
  endfacet
  facet normal 0.0946697 0.991425 0.0900752
    outer loop
      vertex -0.99922 -20.9762 40.6546
      vertex -0.832684 -17.4802 2
      vertex -2.98861 -20.7862 40.6546
    endloop
  endfacet
  facet normal 0 0.995935 0.0900752
    outer loop
      vertex 0.832684 -17.4802 2
      vertex -0.832684 -17.4802 2
      vertex 0.99922 -20.9762 40.6546
    endloop
  endfacet
  facet normal 0 0.995935 0.0900752
    outer loop
      vertex 0.99922 -20.9762 40.6546
      vertex -0.832684 -17.4802 2
      vertex -0.99922 -20.9762 40.6546
    endloop
  endfacet
  facet normal -0.0946695 0.991425 0.0900752
    outer loop
      vertex 0.99922 -20.9762 40.6546
      vertex 2.49051 -17.3219 2
      vertex 0.832684 -17.4802 2
    endloop
  endfacet
  facet normal -0.0946697 0.991425 0.0900752
    outer loop
      vertex 2.98861 -20.7862 40.6546
      vertex 2.49051 -17.3219 2
      vertex 0.99922 -20.9762 40.6546
    endloop
  endfacet
  facet normal -0.188482 0.977937 0.0900752
    outer loop
      vertex 2.98861 -20.7862 40.6546
      vertex 4.12578 -17.0067 2
      vertex 2.49051 -17.3219 2
    endloop
  endfacet
  facet normal -0.188482 0.977937 0.0900752
    outer loop
      vertex 4.95094 -20.408 40.6546
      vertex 4.12578 -17.0067 2
      vertex 2.98861 -20.7862 40.6546
    endloop
  endfacet
  facet normal -0.280587 0.955593 0.0900752
    outer loop
      vertex 4.95094 -20.408 40.6546
      vertex 5.72369 -16.5375 2
      vertex 4.12578 -17.0067 2
    endloop
  endfacet
  facet normal -0.280588 0.955593 0.0900752
    outer loop
      vertex 6.86843 -19.845 40.6546
      vertex 5.72369 -16.5375 2
      vertex 4.95094 -20.408 40.6546
    endloop
  endfacet
  facet normal -0.370151 0.924594 0.0900752
    outer loop
      vertex 6.86843 -19.845 40.6546
      vertex 7.26976 -15.9186 2
      vertex 5.72369 -16.5375 2
    endloop
  endfacet
  facet normal -0.370152 0.924594 0.0900752
    outer loop
      vertex 8.72372 -19.1023 40.6546
      vertex 7.26976 -15.9186 2
      vertex 6.86843 -19.845 40.6546
    endloop
  endfacet
  facet normal -0.456364 0.885222 0.0900752
    outer loop
      vertex 8.72372 -19.1023 40.6546
      vertex 8.75 -15.1554 2
      vertex 7.26976 -15.9186 2
    endloop
  endfacet
  facet normal -0.456364 0.885222 0.0900752
    outer loop
      vertex 10.5 -18.1865 40.6546
      vertex 8.75 -15.1554 2
      vertex 8.72372 -19.1023 40.6546
    endloop
  endfacet
  facet normal -0.538443 0.837834 0.0900752
    outer loop
      vertex 10.5 -18.1865 40.6546
      vertex 10.151 -14.2551 2
      vertex 8.75 -15.1554 2
    endloop
  endfacet
  facet normal -0.538443 0.837834 0.0900752
    outer loop
      vertex 10.5 -18.1865 40.6546
      vertex 12.1812 -17.1061 40.6546
      vertex 10.151 -14.2551 2
    endloop
  endfacet
  facet normal -0.615646 0.782858 0.0900752
    outer loop
      vertex 12.1812 -17.1061 40.6546
      vertex 11.4601 -13.2256 2
      vertex 10.151 -14.2551 2
    endloop
  endfacet
  facet normal -0.615646 0.782858 0.0900752
    outer loop
      vertex 12.1812 -17.1061 40.6546
      vertex 13.7521 -15.8707 40.6546
      vertex 11.4601 -13.2256 2
    endloop
  endfacet
  facet normal -0.687274 0.720792 0.0900752
    outer loop
      vertex 13.7521 -15.8707 40.6546
      vertex 12.6653 -12.0764 2
      vertex 11.4601 -13.2256 2
    endloop
  endfacet
  facet normal -0.687274 0.720792 0.0900752
    outer loop
      vertex 13.7521 -15.8707 40.6546
      vertex 15.1984 -14.4917 40.6546
      vertex 12.6653 -12.0764 2
    endloop
  endfacet
  facet normal -0.752678 0.652198 0.0900752
    outer loop
      vertex 15.1984 -14.4917 40.6546
      vertex 13.7559 -10.8178 2
      vertex 12.6653 -12.0764 2
    endloop
  endfacet
  facet normal -0.752677 0.652199 0.0900752
    outer loop
      vertex 15.1984 -14.4917 40.6546
      vertex 16.5071 -12.9813 40.6546
      vertex 13.7559 -10.8178 2
    endloop
  endfacet
  facet normal -0.811265 0.577699 0.0900752
    outer loop
      vertex 16.5071 -12.9813 40.6546
      vertex 14.7219 -9.46121 2
      vertex 13.7559 -10.8178 2
    endloop
  endfacet
  facet normal -0.811265 0.577699 0.0900752
    outer loop
      vertex 16.5071 -12.9813 40.6546
      vertex 17.6663 -11.3535 40.6546
      vertex 14.7219 -9.46121 2
    endloop
  endfacet
  facet normal -0.862505 0.497967 0.0900752
    outer loop
      vertex 17.6663 -11.3535 40.6546
      vertex 15.5546 -8.01896 2
      vertex 14.7219 -9.46121 2
    endloop
  endfacet
  facet normal -0.862505 0.497967 0.0900752
    outer loop
      vertex 17.6663 -11.3535 40.6546
      vertex 18.6655 -9.62276 40.6546
      vertex 15.5546 -8.01896 2
    endloop
  endfacet
  facet normal -0.905934 0.413727 0.0900752
    outer loop
      vertex 18.6655 -9.62276 40.6546
      vertex 16.2464 -6.50409 2
      vertex 15.5546 -8.01896 2
    endloop
  endfacet
  facet normal -0.905934 0.413727 0.0900752
    outer loop
      vertex 18.6655 -9.62276 40.6546
      vertex 19.4957 -7.80491 40.6546
      vertex 16.2464 -6.50409 2
    endloop
  endfacet
  facet normal -0.941159 0.325738 0.0900752
    outer loop
      vertex 19.4957 -7.80491 40.6546
      vertex 16.7911 -4.93032 2
      vertex 16.2464 -6.50409 2
    endloop
  endfacet
  facet normal -0.941159 0.325738 0.0900752
    outer loop
      vertex 19.4957 -7.80491 40.6546
      vertex 20.1494 -5.91638 40.6546
      vertex 16.7911 -4.93032 2
    endloop
  endfacet
  facet normal -0.967861 0.2348 0.0900752
    outer loop
      vertex 20.1494 -5.91638 40.6546
      vertex 17.1838 -3.3119 2
      vertex 16.7911 -4.93032 2
    endloop
  endfacet
  facet normal -0.967861 0.234801 0.0900752
    outer loop
      vertex 20.1494 -5.91638 40.6546
      vertex 20.6205 -3.97428 40.6546
      vertex 17.1838 -3.3119 2
    endloop
  endfacet
  facet normal -0.985798 0.141737 0.0900752
    outer loop
      vertex 20.6205 -3.97428 40.6546
      vertex 17.4208 -1.66348 2
      vertex 17.1838 -3.3119 2
    endloop
  endfacet
  facet normal -0.985798 0.141736 0.0900752
    outer loop
      vertex 20.6205 -3.97428 40.6546
      vertex 20.9049 -1.99618 40.6546
      vertex 17.4208 -1.66348 2
    endloop
  endfacet
  facet normal -0.994807 0.0473883 0.0900752
    outer loop
      vertex 20.9049 -1.99618 40.6546
      vertex 17.5 0 2
      vertex 17.4208 -1.66348 2
    endloop
  endfacet
  facet normal -0.994807 0.0473887 0.0900752
    outer loop
      vertex 20.9049 -1.99618 40.6546
      vertex 21 0 40.6546
      vertex 17.5 0 2
    endloop
  endfacet
  facet normal -0.994807 -0.0473883 0.0900752
    outer loop
      vertex 17.5 0 2
      vertex 21 0 40.6546
      vertex 17.4208 1.66348 2
    endloop
  endfacet
  facet normal -0.994807 -0.0473887 0.0900752
    outer loop
      vertex 21 0 40.6546
      vertex 20.9049 1.99618 40.6546
      vertex 17.4208 1.66348 2
    endloop
  endfacet
  facet normal -0.985798 -0.141737 0.0900752
    outer loop
      vertex 17.4208 1.66348 2
      vertex 20.9049 1.99618 40.6546
      vertex 17.1838 3.3119 2
    endloop
  endfacet
  facet normal -0.985798 -0.141736 0.0900752
    outer loop
      vertex 20.9049 1.99618 40.6546
      vertex 20.6205 3.97428 40.6546
      vertex 17.1838 3.3119 2
    endloop
  endfacet
  facet normal -0.967861 -0.2348 0.0900752
    outer loop
      vertex 17.1838 3.3119 2
      vertex 20.6205 3.97428 40.6546
      vertex 16.7911 4.93032 2
    endloop
  endfacet
  facet normal -0.967861 -0.234801 0.0900752
    outer loop
      vertex 20.6205 3.97428 40.6546
      vertex 20.1494 5.91638 40.6546
      vertex 16.7911 4.93032 2
    endloop
  endfacet
  facet normal -0.941159 -0.325738 0.0900752
    outer loop
      vertex 16.7911 4.93032 2
      vertex 20.1494 5.91638 40.6546
      vertex 16.2464 6.50409 2
    endloop
  endfacet
  facet normal -0.941159 -0.325738 0.0900752
    outer loop
      vertex 20.1494 5.91638 40.6546
      vertex 19.4957 7.80491 40.6546
      vertex 16.2464 6.50409 2
    endloop
  endfacet
  facet normal -0.905934 -0.413727 0.0900752
    outer loop
      vertex 16.2464 6.50409 2
      vertex 19.4957 7.80491 40.6546
      vertex 15.5546 8.01896 2
    endloop
  endfacet
  facet normal -0.905934 -0.413727 0.0900752
    outer loop
      vertex 19.4957 7.80491 40.6546
      vertex 18.6655 9.62276 40.6546
      vertex 15.5546 8.01896 2
    endloop
  endfacet
  facet normal -0.862505 -0.497967 0.0900752
    outer loop
      vertex 15.5546 8.01896 2
      vertex 18.6655 9.62276 40.6546
      vertex 14.7219 9.46121 2
    endloop
  endfacet
  facet normal -0.862505 -0.497967 0.0900752
    outer loop
      vertex 18.6655 9.62276 40.6546
      vertex 17.6663 11.3535 40.6546
      vertex 14.7219 9.46121 2
    endloop
  endfacet
  facet normal -0.811265 -0.577699 0.0900752
    outer loop
      vertex 14.7219 9.46121 2
      vertex 17.6663 11.3535 40.6546
      vertex 13.7559 10.8178 2
    endloop
  endfacet
  facet normal -0.811265 -0.577699 0.0900752
    outer loop
      vertex 17.6663 11.3535 40.6546
      vertex 16.5071 12.9813 40.6546
      vertex 13.7559 10.8178 2
    endloop
  endfacet
  facet normal -0.752678 -0.652198 0.0900752
    outer loop
      vertex 13.7559 10.8178 2
      vertex 16.5071 12.9813 40.6546
      vertex 12.6653 12.0764 2
    endloop
  endfacet
  facet normal -0.752677 -0.652199 0.0900752
    outer loop
      vertex 16.5071 12.9813 40.6546
      vertex 15.1984 14.4917 40.6546
      vertex 12.6653 12.0764 2
    endloop
  endfacet
  facet normal -0.687274 -0.720792 0.0900752
    outer loop
      vertex 12.6653 12.0764 2
      vertex 15.1984 14.4917 40.6546
      vertex 11.4601 13.2256 2
    endloop
  endfacet
  facet normal -0.687274 -0.720792 0.0900752
    outer loop
      vertex 15.1984 14.4917 40.6546
      vertex 13.7521 15.8707 40.6546
      vertex 11.4601 13.2256 2
    endloop
  endfacet
  facet normal -0.615646 -0.782858 0.0900752
    outer loop
      vertex 11.4601 13.2256 2
      vertex 13.7521 15.8707 40.6546
      vertex 10.151 14.2551 2
    endloop
  endfacet
  facet normal -0.615646 -0.782858 0.0900752
    outer loop
      vertex 13.7521 15.8707 40.6546
      vertex 12.1812 17.1061 40.6546
      vertex 10.151 14.2551 2
    endloop
  endfacet
  facet normal -0.538443 -0.837834 0.0900752
    outer loop
      vertex 10.151 14.2551 2
      vertex 12.1812 17.1061 40.6546
      vertex 8.75 15.1554 2
    endloop
  endfacet
  facet normal -0.538443 -0.837834 0.0900752
    outer loop
      vertex 12.1812 17.1061 40.6546
      vertex 10.5 18.1865 40.6546
      vertex 8.75 15.1554 2
    endloop
  endfacet
  facet normal -0.456364 -0.885222 0.0900752
    outer loop
      vertex 8.75 15.1554 2
      vertex 10.5 18.1865 40.6546
      vertex 7.26976 15.9186 2
    endloop
  endfacet
  facet normal -0.456364 -0.885222 0.0900752
    outer loop
      vertex 10.5 18.1865 40.6546
      vertex 8.72372 19.1023 40.6546
      vertex 7.26976 15.9186 2
    endloop
  endfacet
  facet normal -0.370151 -0.924594 0.0900752
    outer loop
      vertex 7.26976 15.9186 2
      vertex 8.72372 19.1023 40.6546
      vertex 5.72369 16.5375 2
    endloop
  endfacet
  facet normal -0.370152 -0.924594 0.0900752
    outer loop
      vertex 8.72372 19.1023 40.6546
      vertex 6.86843 19.845 40.6546
      vertex 5.72369 16.5375 2
    endloop
  endfacet
  facet normal -0.280587 -0.955593 0.0900752
    outer loop
      vertex 5.72369 16.5375 2
      vertex 6.86843 19.845 40.6546
      vertex 4.12578 17.0067 2
    endloop
  endfacet
  facet normal -0.280588 -0.955593 0.0900752
    outer loop
      vertex 6.86843 19.845 40.6546
      vertex 4.95094 20.408 40.6546
      vertex 4.12578 17.0067 2
    endloop
  endfacet
  facet normal -0.188482 -0.977937 0.0900752
    outer loop
      vertex 4.12578 17.0067 2
      vertex 4.95094 20.408 40.6546
      vertex 2.49051 17.3219 2
    endloop
  endfacet
  facet normal -0.188482 -0.977937 0.0900752
    outer loop
      vertex 4.95094 20.408 40.6546
      vertex 2.98861 20.7862 40.6546
      vertex 2.49051 17.3219 2
    endloop
  endfacet
  facet normal -0.0946695 -0.991425 0.0900752
    outer loop
      vertex 2.49051 17.3219 2
      vertex 2.98861 20.7862 40.6546
      vertex 0.832684 17.4802 2
    endloop
  endfacet
  facet normal -0.0946697 -0.991425 0.0900752
    outer loop
      vertex 2.98861 20.7862 40.6546
      vertex 0.99922 20.9762 40.6546
      vertex 0.832684 17.4802 2
    endloop
  endfacet
  facet normal 0 -0.995935 0.0900752
    outer loop
      vertex -0.832684 17.4802 2
      vertex 0.832684 17.4802 2
      vertex 0.99922 20.9762 40.6546
    endloop
  endfacet
  facet normal 0 -0.995935 0.0900752
    outer loop
      vertex -0.99922 20.9762 40.6546
      vertex -0.832684 17.4802 2
      vertex 0.99922 20.9762 40.6546
    endloop
  endfacet
  facet normal 0.0946695 -0.991425 0.0900752
    outer loop
      vertex -0.832684 17.4802 2
      vertex -0.99922 20.9762 40.6546
      vertex -2.49051 17.3219 2
    endloop
  endfacet
  facet normal 0.0946697 -0.991425 0.0900752
    outer loop
      vertex -2.49051 17.3219 2
      vertex -0.99922 20.9762 40.6546
      vertex -2.98861 20.7862 40.6546
    endloop
  endfacet
  facet normal 0.188482 -0.977937 0.0900752
    outer loop
      vertex -2.49051 17.3219 2
      vertex -2.98861 20.7862 40.6546
      vertex -4.12578 17.0067 2
    endloop
  endfacet
  facet normal 0.188482 -0.977937 0.0900752
    outer loop
      vertex -4.12578 17.0067 2
      vertex -2.98861 20.7862 40.6546
      vertex -4.95094 20.408 40.6546
    endloop
  endfacet
  facet normal 0.280587 -0.955593 0.0900752
    outer loop
      vertex -4.12578 17.0067 2
      vertex -4.95094 20.408 40.6546
      vertex -5.72369 16.5375 2
    endloop
  endfacet
  facet normal 0.280588 -0.955593 0.0900752
    outer loop
      vertex -5.72369 16.5375 2
      vertex -4.95094 20.408 40.6546
      vertex -6.86843 19.845 40.6546
    endloop
  endfacet
  facet normal 0.370151 -0.924594 0.0900752
    outer loop
      vertex -5.72369 16.5375 2
      vertex -6.86843 19.845 40.6546
      vertex -7.26976 15.9186 2
    endloop
  endfacet
  facet normal 0.370152 -0.924594 0.0900752
    outer loop
      vertex -7.26976 15.9186 2
      vertex -6.86843 19.845 40.6546
      vertex -8.72372 19.1023 40.6546
    endloop
  endfacet
  facet normal 0.456364 -0.885222 0.0900752
    outer loop
      vertex -7.26976 15.9186 2
      vertex -8.72372 19.1023 40.6546
      vertex -8.75 15.1554 2
    endloop
  endfacet
  facet normal 0.456364 -0.885222 0.0900752
    outer loop
      vertex -8.75 15.1554 2
      vertex -8.72372 19.1023 40.6546
      vertex -10.5 18.1865 40.6546
    endloop
  endfacet
  facet normal 0.538443 -0.837834 0.0900752
    outer loop
      vertex -10.151 14.2551 2
      vertex -8.75 15.1554 2
      vertex -10.5 18.1865 40.6546
    endloop
  endfacet
  facet normal 0.538443 -0.837834 0.0900752
    outer loop
      vertex -10.151 14.2551 2
      vertex -10.5 18.1865 40.6546
      vertex -12.1812 17.1061 40.6546
    endloop
  endfacet
  facet normal 0.615646 -0.782858 0.0900752
    outer loop
      vertex -11.4601 13.2256 2
      vertex -10.151 14.2551 2
      vertex -12.1812 17.1061 40.6546
    endloop
  endfacet
  facet normal 0.615646 -0.782858 0.0900752
    outer loop
      vertex -11.4601 13.2256 2
      vertex -12.1812 17.1061 40.6546
      vertex -13.7521 15.8707 40.6546
    endloop
  endfacet
  facet normal 0.687274 -0.720792 0.0900752
    outer loop
      vertex -12.6653 12.0764 2
      vertex -11.4601 13.2256 2
      vertex -13.7521 15.8707 40.6546
    endloop
  endfacet
  facet normal 0.687274 -0.720792 0.0900752
    outer loop
      vertex -12.6653 12.0764 2
      vertex -13.7521 15.8707 40.6546
      vertex -15.1984 14.4917 40.6546
    endloop
  endfacet
  facet normal 0.752678 -0.652198 0.0900752
    outer loop
      vertex -13.7559 10.8178 2
      vertex -12.6653 12.0764 2
      vertex -15.1984 14.4917 40.6546
    endloop
  endfacet
  facet normal 0.752677 -0.652199 0.0900752
    outer loop
      vertex -13.7559 10.8178 2
      vertex -15.1984 14.4917 40.6546
      vertex -16.5071 12.9813 40.6546
    endloop
  endfacet
  facet normal 0.811265 -0.577699 0.0900752
    outer loop
      vertex -14.7219 9.46121 2
      vertex -13.7559 10.8178 2
      vertex -16.5071 12.9813 40.6546
    endloop
  endfacet
  facet normal 0.811265 -0.577699 0.0900752
    outer loop
      vertex -14.7219 9.46121 2
      vertex -16.5071 12.9813 40.6546
      vertex -17.6663 11.3535 40.6546
    endloop
  endfacet
  facet normal 0.862505 -0.497967 0.0900752
    outer loop
      vertex -15.5546 8.01896 2
      vertex -14.7219 9.46121 2
      vertex -17.6663 11.3535 40.6546
    endloop
  endfacet
  facet normal 0.862505 -0.497967 0.0900752
    outer loop
      vertex -15.5546 8.01896 2
      vertex -17.6663 11.3535 40.6546
      vertex -18.6655 9.62276 40.6546
    endloop
  endfacet
  facet normal 0.905934 -0.413727 0.0900752
    outer loop
      vertex -16.2464 6.50409 2
      vertex -15.5546 8.01896 2
      vertex -18.6655 9.62276 40.6546
    endloop
  endfacet
  facet normal 0.905934 -0.413727 0.0900752
    outer loop
      vertex -16.2464 6.50409 2
      vertex -18.6655 9.62276 40.6546
      vertex -19.4957 7.80491 40.6546
    endloop
  endfacet
  facet normal 0.941159 -0.325738 0.0900752
    outer loop
      vertex -16.7911 4.93032 2
      vertex -16.2464 6.50409 2
      vertex -19.4957 7.80491 40.6546
    endloop
  endfacet
  facet normal 0.941159 -0.325738 0.0900752
    outer loop
      vertex -16.7911 4.93032 2
      vertex -19.4957 7.80491 40.6546
      vertex -20.1494 5.91638 40.6546
    endloop
  endfacet
  facet normal 0.967861 -0.2348 0.0900752
    outer loop
      vertex -17.1838 3.3119 2
      vertex -16.7911 4.93032 2
      vertex -20.1494 5.91638 40.6546
    endloop
  endfacet
  facet normal 0.967861 -0.234801 0.0900752
    outer loop
      vertex -17.1838 3.3119 2
      vertex -20.1494 5.91638 40.6546
      vertex -20.6205 3.97428 40.6546
    endloop
  endfacet
  facet normal 0.985798 -0.141737 0.0900752
    outer loop
      vertex -17.4208 1.66348 2
      vertex -17.1838 3.3119 2
      vertex -20.6205 3.97428 40.6546
    endloop
  endfacet
  facet normal 0.985798 -0.141736 0.0900752
    outer loop
      vertex -17.4208 1.66348 2
      vertex -20.6205 3.97428 40.6546
      vertex -20.9049 1.99618 40.6546
    endloop
  endfacet
  facet normal 0.994807 -0.0473883 0.0900752
    outer loop
      vertex -17.5 0 2
      vertex -17.4208 1.66348 2
      vertex -20.9049 1.99618 40.6546
    endloop
  endfacet
  facet normal 0.994807 -0.0473887 0.0900752
    outer loop
      vertex -17.5 0 2
      vertex -20.9049 1.99618 40.6546
      vertex -21 0 40.6546
    endloop
  endfacet
  facet normal 0.994807 0.0473883 0.0900752
    outer loop
      vertex -17.4208 -1.66348 2
      vertex -17.5 0 2
      vertex -21 0 40.6546
    endloop
  endfacet
  facet normal 0 0 -1
    outer loop
      vertex -19.4819 -0.838934 0
      vertex -19.4819 0.838934 0
      vertex -19.3377 -2.51059 0
    endloop
  endfacet
  facet normal 0 0 -1
    outer loop
      vertex -19.3377 -2.51059 0
      vertex -19.4819 0.838934 0
      vertex -19.3377 2.51059 0
    endloop
  endfacet
  facet normal 0 0 -1
    outer loop
      vertex -19.3377 -2.51059 0
      vertex -19.3377 2.51059 0
      vertex -19.0503 4.16366 0
    endloop
  endfacet
  facet normal 0 0 -1
    outer loop
      vertex -19.3377 -2.51059 0
      vertex -19.0503 4.16366 0
      vertex -18.6219 5.7859 0
    endloop
  endfacet
  facet normal 0 0 -1
    outer loop
      vertex -19.3377 -2.51059 0
      vertex -18.6219 5.7859 0
      vertex -18.0555 7.3653 0
    endloop
  endfacet
  facet normal 0 0 -1
    outer loop
      vertex -19.3377 -2.51059 0
      vertex -18.0555 7.3653 0
      vertex -17.3555 8.89018 0
    endloop
  endfacet
  facet normal 0 0 -1
    outer loop
      vertex -19.3377 -2.51059 0
      vertex -17.3555 8.89018 0
      vertex -16.527 10.3492 0
    endloop
  endfacet
  facet normal 0 0 -1
    outer loop
      vertex -19.3377 -2.51059 0
      vertex -16.527 10.3492 0
      vertex -15.5762 11.7317 0
    endloop
  endfacet
  facet normal 0 0 -1
    outer loop
      vertex -19.3377 -2.51059 0
      vertex -15.5762 11.7317 0
      vertex -14.51 13.0272 0
    endloop
  endfacet
  facet normal 0 0 -1
    outer loop
      vertex -19.3377 -2.51059 0
      vertex -14.51 13.0272 0
      vertex -13.3364 14.2264 0
    endloop
  endfacet
  facet normal 0 0 -1
    outer loop
      vertex -19.3377 -2.51059 0
      vertex -13.3364 14.2264 0
      vertex -12.0641 15.3202 0
    endloop
  endfacet
  facet normal 0 0 -1
    outer loop
      vertex -19.3377 -2.51059 0
      vertex -12.0641 15.3202 0
      vertex -10.7024 16.3005 0
    endloop
  endfacet
  facet normal 0 0 -1
    outer loop
      vertex -19.3377 -2.51059 0
      vertex -10.7024 16.3005 0
      vertex -9.26155 17.1602 0
    endloop
  endfacet
  facet normal 0 0 -1
    outer loop
      vertex -19.3377 -2.51059 0
      vertex -9.26155 17.1602 0
      vertex -7.75208 17.8929 0
    endloop
  endfacet
  facet normal 0 0 -1
    outer loop
      vertex -19.3377 -2.51059 0
      vertex -7.75208 17.8929 0
      vertex -6.18523 18.4931 0
    endloop
  endfacet
  facet normal 0 0 -1
    outer loop
      vertex -19.3377 -2.51059 0
      vertex -6.18523 18.4931 0
      vertex -4.57258 18.9563 0
    endloop
  endfacet
  facet normal 0 0 -1
    outer loop
      vertex -19.3377 -2.51059 0
      vertex -4.57258 18.9563 0
      vertex -2.92608 19.2792 0
    endloop
  endfacet
  facet normal 0 0 -1
    outer loop
      vertex -19.3377 -2.51059 0
      vertex -2.92608 19.2792 0
      vertex -1.25791 19.4594 0
    endloop
  endfacet
  facet normal 0 0 -1
    outer loop
      vertex -19.3377 -2.51059 0
      vertex -1.25791 19.4594 0
      vertex 0.419564 19.4955 0
    endloop
  endfacet
  facet normal 0 0 -1
    outer loop
      vertex -19.3377 -2.51059 0
      vertex 0.419564 19.4955 0
      vertex 2.09394 19.3872 0
    endloop
  endfacet
  facet normal 0 0 -1
    outer loop
      vertex -19.3377 -2.51059 0
      vertex 2.09394 19.3872 0
      vertex 3.75281 19.1355 0
    endloop
  endfacet
  facet normal 0 0 -1
    outer loop
      vertex -19.3377 -2.51059 0
      vertex 3.75281 19.1355 0
      vertex 5.38389 18.742 0
    endloop
  endfacet
  facet normal 0 0 -1
    outer loop
      vertex -19.3377 -2.51059 0
      vertex 5.38389 18.742 0
      vertex 6.97512 18.2098 0
    endloop
  endfacet
  facet normal 0 0 -1
    outer loop
      vertex -19.3377 -2.51059 0
      vertex 6.97512 18.2098 0
      vertex 8.5147 17.5428 0
    endloop
  endfacet
  facet normal 0 0 -1
    outer loop
      vertex -19.3377 -2.51059 0
      vertex 8.5147 17.5428 0
      vertex 9.99124 16.7459 0
    endloop
  endfacet
  facet normal 0 0 -1
    outer loop
      vertex -19.3377 -2.51059 0
      vertex 9.99124 16.7459 0
      vertex 11.3938 15.825 0
    endloop
  endfacet
  facet normal 0 0 -1
    outer loop
      vertex -19.3377 -2.51059 0
      vertex 11.3938 15.825 0
      vertex 12.712 14.787 0
    endloop
  endfacet
  facet normal 0 0 -1
    outer loop
      vertex -19.3377 -2.51059 0
      vertex 12.712 14.787 0
      vertex 13.9361 13.6394 0
    endloop
  endfacet
  facet normal 0 0 -1
    outer loop
      vertex -19.3377 -2.51059 0
      vertex 13.9361 13.6394 0
      vertex 15.0571 12.3909 0
    endloop
  endfacet
  facet normal 0 0 -1
    outer loop
      vertex -19.3377 -2.51059 0
      vertex 15.0571 12.3909 0
      vertex 16.0665 11.0507 0
    endloop
  endfacet
  facet normal 0 0 -1
    outer loop
      vertex -19.3377 -2.51059 0
      vertex 16.0665 11.0507 0
      vertex 16.957 9.62862 0
    endloop
  endfacet
  facet normal 0 0 -1
    outer loop
      vertex -19.3377 -2.51059 0
      vertex 16.957 9.62862 0
      vertex 17.7219 8.13528 0
    endloop
  endfacet
  facet normal 0 0 -1
    outer loop
      vertex -19.3377 -2.51059 0
      vertex 17.7219 8.13528 0
      vertex 18.3557 6.5817 0
    endloop
  endfacet
  facet normal 0 0 -1
    outer loop
      vertex -19.3377 -2.51059 0
      vertex 18.3557 6.5817 0
      vertex 18.8535 4.97939 0
    endloop
  endfacet
  facet normal 0 0 -1
    outer loop
      vertex -19.3377 -2.51059 0
      vertex 18.8535 4.97939 0
      vertex 19.2118 3.34022 0
    endloop
  endfacet
  facet normal 0 0 -1
    outer loop
      vertex -19.3377 -2.51059 0
      vertex 19.2118 3.34022 0
      vertex 19.4278 1.67631 0
    endloop
  endfacet
  facet normal 0 0 -1
    outer loop
      vertex -19.3377 -2.51059 0
      vertex 19.4278 1.67631 0
      vertex 19.5 0 0
    endloop
  endfacet
  facet normal 0 0 -1
    outer loop
      vertex -19.3377 -2.51059 0
      vertex 19.5 0 0
      vertex 19.4278 -1.67631 0
    endloop
  endfacet
  facet normal 0 0 -1
    outer loop
      vertex -19.3377 -2.51059 0
      vertex 19.4278 -1.67631 0
      vertex 19.2118 -3.34022 0
    endloop
  endfacet
  facet normal 0 0 -1
    outer loop
      vertex -19.3377 -2.51059 0
      vertex 19.2118 -3.34022 0
      vertex 18.8535 -4.97939 0
    endloop
  endfacet
  facet normal 0 0 -1
    outer loop
      vertex -19.3377 -2.51059 0
      vertex 18.8535 -4.97939 0
      vertex 18.3557 -6.5817 0
    endloop
  endfacet
  facet normal 0 0 -1
    outer loop
      vertex -19.3377 -2.51059 0
      vertex 18.3557 -6.5817 0
      vertex 17.7219 -8.13528 0
    endloop
  endfacet
  facet normal 0 0 -1
    outer loop
      vertex -19.3377 -2.51059 0
      vertex 17.7219 -8.13528 0
      vertex 16.957 -9.62862 0
    endloop
  endfacet
  facet normal 0 0 -1
    outer loop
      vertex -19.3377 -2.51059 0
      vertex 16.957 -9.62862 0
      vertex 16.0665 -11.0507 0
    endloop
  endfacet
  facet normal 0 0 -1
    outer loop
      vertex -19.3377 -2.51059 0
      vertex 16.0665 -11.0507 0
      vertex 15.0571 -12.3909 0
    endloop
  endfacet
  facet normal 0 0 -1
    outer loop
      vertex -19.3377 -2.51059 0
      vertex 15.0571 -12.3909 0
      vertex 13.9361 -13.6394 0
    endloop
  endfacet
  facet normal 0 0 -1
    outer loop
      vertex -19.3377 -2.51059 0
      vertex 13.9361 -13.6394 0
      vertex 12.712 -14.787 0
    endloop
  endfacet
  facet normal 0 0 -1
    outer loop
      vertex -19.3377 -2.51059 0
      vertex 12.712 -14.787 0
      vertex 11.3938 -15.825 0
    endloop
  endfacet
  facet normal 0 0 -1
    outer loop
      vertex -19.3377 -2.51059 0
      vertex 11.3938 -15.825 0
      vertex 9.99124 -16.7459 0
    endloop
  endfacet
  facet normal 0 0 -1
    outer loop
      vertex -19.3377 -2.51059 0
      vertex 9.99124 -16.7459 0
      vertex 8.5147 -17.5428 0
    endloop
  endfacet
  facet normal 0 0 -1
    outer loop
      vertex -19.3377 -2.51059 0
      vertex 8.5147 -17.5428 0
      vertex 6.97512 -18.2098 0
    endloop
  endfacet
  facet normal 0 0 -1
    outer loop
      vertex -19.3377 -2.51059 0
      vertex 6.97512 -18.2098 0
      vertex 5.38389 -18.742 0
    endloop
  endfacet
  facet normal 0 0 -1
    outer loop
      vertex -19.3377 -2.51059 0
      vertex 5.38389 -18.742 0
      vertex 3.75281 -19.1355 0
    endloop
  endfacet
  facet normal 0 0 -1
    outer loop
      vertex -19.3377 -2.51059 0
      vertex 3.75281 -19.1355 0
      vertex 2.09394 -19.3872 0
    endloop
  endfacet
  facet normal 0 0 -1
    outer loop
      vertex -19.3377 -2.51059 0
      vertex 2.09394 -19.3872 0
      vertex 0.419564 -19.4955 0
    endloop
  endfacet
  facet normal 0 0 -1
    outer loop
      vertex -19.3377 -2.51059 0
      vertex 0.419564 -19.4955 0
      vertex -1.25791 -19.4594 0
    endloop
  endfacet
  facet normal 0 0 -1
    outer loop
      vertex -19.3377 -2.51059 0
      vertex -1.25791 -19.4594 0
      vertex -2.92608 -19.2792 0
    endloop
  endfacet
  facet normal 0 0 -1
    outer loop
      vertex -19.3377 -2.51059 0
      vertex -2.92608 -19.2792 0
      vertex -4.57258 -18.9563 0
    endloop
  endfacet
  facet normal 0 0 -1
    outer loop
      vertex -19.3377 -2.51059 0
      vertex -4.57258 -18.9563 0
      vertex -6.18523 -18.4931 0
    endloop
  endfacet
  facet normal 0 0 -1
    outer loop
      vertex -19.3377 -2.51059 0
      vertex -6.18523 -18.4931 0
      vertex -7.75208 -17.8929 0
    endloop
  endfacet
  facet normal 0 0 -1
    outer loop
      vertex -19.3377 -2.51059 0
      vertex -7.75208 -17.8929 0
      vertex -9.26155 -17.1602 0
    endloop
  endfacet
  facet normal 0 0 -1
    outer loop
      vertex -19.3377 -2.51059 0
      vertex -9.26155 -17.1602 0
      vertex -10.7024 -16.3005 0
    endloop
  endfacet
  facet normal 0 0 -1
    outer loop
      vertex -19.3377 -2.51059 0
      vertex -10.7024 -16.3005 0
      vertex -12.0641 -15.3202 0
    endloop
  endfacet
  facet normal 0 0 -1
    outer loop
      vertex -19.3377 -2.51059 0
      vertex -12.0641 -15.3202 0
      vertex -13.3364 -14.2264 0
    endloop
  endfacet
  facet normal 0 0 -1
    outer loop
      vertex -19.3377 -2.51059 0
      vertex -13.3364 -14.2264 0
      vertex -14.51 -13.0272 0
    endloop
  endfacet
  facet normal 0 0 -1
    outer loop
      vertex -19.3377 -2.51059 0
      vertex -14.51 -13.0272 0
      vertex -15.5762 -11.7317 0
    endloop
  endfacet
  facet normal 0 0 -1
    outer loop
      vertex -19.3377 -2.51059 0
      vertex -15.5762 -11.7317 0
      vertex -16.527 -10.3492 0
    endloop
  endfacet
  facet normal 0 0 -1
    outer loop
      vertex -19.3377 -2.51059 0
      vertex -16.527 -10.3492 0
      vertex -17.3555 -8.89018 0
    endloop
  endfacet
  facet normal 0 0 -1
    outer loop
      vertex -19.3377 -2.51059 0
      vertex -17.3555 -8.89018 0
      vertex -18.0555 -7.3653 0
    endloop
  endfacet
  facet normal 0 0 -1
    outer loop
      vertex -19.3377 -2.51059 0
      vertex -18.0555 -7.3653 0
      vertex -18.6219 -5.7859 0
    endloop
  endfacet
  facet normal 0 0 -1
    outer loop
      vertex -19.3377 -2.51059 0
      vertex -18.6219 -5.7859 0
      vertex -19.0503 -4.16366 0
    endloop
  endfacet
  facet normal 0 0 1
    outer loop
      vertex -17.4208 -1.66348 2
      vertex -17.1838 -3.3119 2
      vertex -16.7911 -4.93032 2
    endloop
  endfacet
  facet normal 0 0 1
    outer loop
      vertex -15.5546 -8.01896 2
      vertex -17.4208 -1.66348 2
      vertex -16.2464 -6.50409 2
    endloop
  endfacet
  facet normal 0 0 1
    outer loop
      vertex -16.2464 -6.50409 2
      vertex -17.4208 -1.66348 2
      vertex -16.7911 -4.93032 2
    endloop
  endfacet
  facet normal 0 0 1
    outer loop
      vertex -14.7219 -9.46121 2
      vertex -17.4208 -1.66348 2
      vertex -15.5546 -8.01896 2
    endloop
  endfacet
  facet normal 0 0 1
    outer loop
      vertex -13.7559 -10.8178 2
      vertex -17.4208 -1.66348 2
      vertex -14.7219 -9.46121 2
    endloop
  endfacet
  facet normal 0 0 1
    outer loop
      vertex -12.6653 -12.0764 2
      vertex -17.4208 -1.66348 2
      vertex -13.7559 -10.8178 2
    endloop
  endfacet
  facet normal 0 0 1
    outer loop
      vertex -11.4601 -13.2256 2
      vertex -17.4208 -1.66348 2
      vertex -12.6653 -12.0764 2
    endloop
  endfacet
  facet normal 0 0 1
    outer loop
      vertex -10.151 -14.2551 2
      vertex -17.4208 -1.66348 2
      vertex -11.4601 -13.2256 2
    endloop
  endfacet
  facet normal 0 0 1
    outer loop
      vertex -8.75 -15.1554 2
      vertex -17.4208 -1.66348 2
      vertex -10.151 -14.2551 2
    endloop
  endfacet
  facet normal 0 0 1
    outer loop
      vertex -7.26976 -15.9186 2
      vertex -17.4208 -1.66348 2
      vertex -8.75 -15.1554 2
    endloop
  endfacet
  facet normal 0 0 1
    outer loop
      vertex -5.72369 -16.5375 2
      vertex -17.4208 -1.66348 2
      vertex -7.26976 -15.9186 2
    endloop
  endfacet
  facet normal 0 0 1
    outer loop
      vertex -4.12578 -17.0067 2
      vertex -17.4208 -1.66348 2
      vertex -5.72369 -16.5375 2
    endloop
  endfacet
  facet normal 0 0 1
    outer loop
      vertex -2.49051 -17.3219 2
      vertex -17.4208 -1.66348 2
      vertex -4.12578 -17.0067 2
    endloop
  endfacet
  facet normal 0 0 1
    outer loop
      vertex -0.832684 -17.4802 2
      vertex -17.4208 -1.66348 2
      vertex -2.49051 -17.3219 2
    endloop
  endfacet
  facet normal 0 0 1
    outer loop
      vertex 0.832684 -17.4802 2
      vertex -17.4208 -1.66348 2
      vertex -0.832684 -17.4802 2
    endloop
  endfacet
  facet normal 0 0 1
    outer loop
      vertex 2.49051 -17.3219 2
      vertex -17.4208 -1.66348 2
      vertex 0.832684 -17.4802 2
    endloop
  endfacet
  facet normal 0 0 1
    outer loop
      vertex 4.12578 -17.0067 2
      vertex -17.4208 -1.66348 2
      vertex 2.49051 -17.3219 2
    endloop
  endfacet
  facet normal 0 0 1
    outer loop
      vertex 5.72369 -16.5375 2
      vertex -17.4208 -1.66348 2
      vertex 4.12578 -17.0067 2
    endloop
  endfacet
  facet normal 0 0 1
    outer loop
      vertex 7.26976 -15.9186 2
      vertex -17.4208 -1.66348 2
      vertex 5.72369 -16.5375 2
    endloop
  endfacet
  facet normal 0 0 1
    outer loop
      vertex 8.75 -15.1554 2
      vertex -17.4208 -1.66348 2
      vertex 7.26976 -15.9186 2
    endloop
  endfacet
  facet normal 0 0 1
    outer loop
      vertex 10.151 -14.2551 2
      vertex -17.4208 -1.66348 2
      vertex 8.75 -15.1554 2
    endloop
  endfacet
  facet normal 0 0 1
    outer loop
      vertex 11.4601 -13.2256 2
      vertex -17.4208 -1.66348 2
      vertex 10.151 -14.2551 2
    endloop
  endfacet
  facet normal 0 0 1
    outer loop
      vertex 12.6653 -12.0764 2
      vertex -17.4208 -1.66348 2
      vertex 11.4601 -13.2256 2
    endloop
  endfacet
  facet normal 0 0 1
    outer loop
      vertex 13.7559 -10.8178 2
      vertex -17.4208 -1.66348 2
      vertex 12.6653 -12.0764 2
    endloop
  endfacet
  facet normal 0 0 1
    outer loop
      vertex 14.7219 -9.46121 2
      vertex -17.4208 -1.66348 2
      vertex 13.7559 -10.8178 2
    endloop
  endfacet
  facet normal 0 0 1
    outer loop
      vertex 15.5546 -8.01896 2
      vertex -17.4208 -1.66348 2
      vertex 14.7219 -9.46121 2
    endloop
  endfacet
  facet normal 0 0 1
    outer loop
      vertex 16.2464 -6.50409 2
      vertex -17.4208 -1.66348 2
      vertex 15.5546 -8.01896 2
    endloop
  endfacet
  facet normal 0 0 1
    outer loop
      vertex 16.7911 -4.93032 2
      vertex -17.4208 -1.66348 2
      vertex 16.2464 -6.50409 2
    endloop
  endfacet
  facet normal 0 0 1
    outer loop
      vertex 17.1838 -3.3119 2
      vertex -17.4208 -1.66348 2
      vertex 16.7911 -4.93032 2
    endloop
  endfacet
  facet normal 0 0 1
    outer loop
      vertex 17.4208 -1.66348 2
      vertex -17.4208 -1.66348 2
      vertex 17.1838 -3.3119 2
    endloop
  endfacet
  facet normal 0 0 1
    outer loop
      vertex 17.5 0 2
      vertex -17.4208 -1.66348 2
      vertex 17.4208 -1.66348 2
    endloop
  endfacet
  facet normal 0 0 1
    outer loop
      vertex 17.4208 1.66348 2
      vertex -17.4208 -1.66348 2
      vertex 17.5 0 2
    endloop
  endfacet
  facet normal 0 0 1
    outer loop
      vertex 17.1838 3.3119 2
      vertex -17.4208 -1.66348 2
      vertex 17.4208 1.66348 2
    endloop
  endfacet
  facet normal 0 0 1
    outer loop
      vertex 16.7911 4.93032 2
      vertex -17.4208 -1.66348 2
      vertex 17.1838 3.3119 2
    endloop
  endfacet
  facet normal 0 0 1
    outer loop
      vertex 16.2464 6.50409 2
      vertex -17.4208 -1.66348 2
      vertex 16.7911 4.93032 2
    endloop
  endfacet
  facet normal 0 0 1
    outer loop
      vertex 15.5546 8.01896 2
      vertex -17.4208 -1.66348 2
      vertex 16.2464 6.50409 2
    endloop
  endfacet
  facet normal 0 0 1
    outer loop
      vertex 14.7219 9.46121 2
      vertex -17.4208 -1.66348 2
      vertex 15.5546 8.01896 2
    endloop
  endfacet
  facet normal 0 0 1
    outer loop
      vertex 13.7559 10.8178 2
      vertex -17.4208 -1.66348 2
      vertex 14.7219 9.46121 2
    endloop
  endfacet
  facet normal 0 0 1
    outer loop
      vertex 12.6653 12.0764 2
      vertex -17.4208 -1.66348 2
      vertex 13.7559 10.8178 2
    endloop
  endfacet
  facet normal 0 0 1
    outer loop
      vertex 11.4601 13.2256 2
      vertex -17.4208 -1.66348 2
      vertex 12.6653 12.0764 2
    endloop
  endfacet
  facet normal 0 0 1
    outer loop
      vertex 10.151 14.2551 2
      vertex -17.4208 -1.66348 2
      vertex 11.4601 13.2256 2
    endloop
  endfacet
  facet normal 0 0 1
    outer loop
      vertex 8.75 15.1554 2
      vertex -17.4208 -1.66348 2
      vertex 10.151 14.2551 2
    endloop
  endfacet
  facet normal 0 0 1
    outer loop
      vertex 7.26976 15.9186 2
      vertex -17.4208 -1.66348 2
      vertex 8.75 15.1554 2
    endloop
  endfacet
  facet normal 0 0 1
    outer loop
      vertex 5.72369 16.5375 2
      vertex -17.4208 -1.66348 2
      vertex 7.26976 15.9186 2
    endloop
  endfacet
  facet normal 0 0 1
    outer loop
      vertex 4.12578 17.0067 2
      vertex -17.4208 -1.66348 2
      vertex 5.72369 16.5375 2
    endloop
  endfacet
  facet normal 0 0 1
    outer loop
      vertex 2.49051 17.3219 2
      vertex -17.4208 -1.66348 2
      vertex 4.12578 17.0067 2
    endloop
  endfacet
  facet normal 0 0 1
    outer loop
      vertex 0.832684 17.4802 2
      vertex -17.4208 -1.66348 2
      vertex 2.49051 17.3219 2
    endloop
  endfacet
  facet normal 0 0 1
    outer loop
      vertex -0.832684 17.4802 2
      vertex -17.4208 -1.66348 2
      vertex 0.832684 17.4802 2
    endloop
  endfacet
  facet normal 0 0 1
    outer loop
      vertex -2.49051 17.3219 2
      vertex -17.4208 -1.66348 2
      vertex -0.832684 17.4802 2
    endloop
  endfacet
  facet normal 0 0 1
    outer loop
      vertex -4.12578 17.0067 2
      vertex -17.4208 -1.66348 2
      vertex -2.49051 17.3219 2
    endloop
  endfacet
  facet normal 0 0 1
    outer loop
      vertex -5.72369 16.5375 2
      vertex -17.4208 -1.66348 2
      vertex -4.12578 17.0067 2
    endloop
  endfacet
  facet normal 0 0 1
    outer loop
      vertex -7.26976 15.9186 2
      vertex -17.4208 -1.66348 2
      vertex -5.72369 16.5375 2
    endloop
  endfacet
  facet normal 0 0 1
    outer loop
      vertex -8.75 15.1554 2
      vertex -17.4208 -1.66348 2
      vertex -7.26976 15.9186 2
    endloop
  endfacet
  facet normal 0 0 1
    outer loop
      vertex -10.151 14.2551 2
      vertex -17.4208 -1.66348 2
      vertex -8.75 15.1554 2
    endloop
  endfacet
  facet normal 0 0 1
    outer loop
      vertex -11.4601 13.2256 2
      vertex -17.4208 -1.66348 2
      vertex -10.151 14.2551 2
    endloop
  endfacet
  facet normal 0 0 1
    outer loop
      vertex -12.6653 12.0764 2
      vertex -17.4208 -1.66348 2
      vertex -11.4601 13.2256 2
    endloop
  endfacet
  facet normal 0 0 1
    outer loop
      vertex -13.7559 10.8178 2
      vertex -17.4208 -1.66348 2
      vertex -12.6653 12.0764 2
    endloop
  endfacet
  facet normal 0 0 1
    outer loop
      vertex -14.7219 9.46121 2
      vertex -17.4208 -1.66348 2
      vertex -13.7559 10.8178 2
    endloop
  endfacet
  facet normal 0 0 1
    outer loop
      vertex -15.5546 8.01896 2
      vertex -17.4208 -1.66348 2
      vertex -14.7219 9.46121 2
    endloop
  endfacet
  facet normal 0 0 1
    outer loop
      vertex -16.2464 6.50409 2
      vertex -17.4208 -1.66348 2
      vertex -15.5546 8.01896 2
    endloop
  endfacet
  facet normal 0 0 1
    outer loop
      vertex -16.7911 4.93032 2
      vertex -17.4208 -1.66348 2
      vertex -16.2464 6.50409 2
    endloop
  endfacet
  facet normal 0 0 1
    outer loop
      vertex -17.1838 3.3119 2
      vertex -17.4208 -1.66348 2
      vertex -16.7911 4.93032 2
    endloop
  endfacet
  facet normal 0 0 1
    outer loop
      vertex -17.4208 1.66348 2
      vertex -17.4208 -1.66348 2
      vertex -17.1838 3.3119 2
    endloop
  endfacet
  facet normal 0 0 1
    outer loop
      vertex -17.5 0 2
      vertex -17.4208 -1.66348 2
      vertex -17.4208 1.66348 2
    endloop
  endfacet
endsolid OpenSCAD_Model
